<svg width="175" height="46" viewBox="0 0 175 46" fill="none" xmlns="http://www.w3.org/2000/svg">
<g clip-path="url(#clip0_6300_1887)">
<path d="M23.2733 45.7596C35.8507 45.7596 46.0467 35.5636 46.0467 22.9863C46.0467 10.4089 35.8507 0.212891 23.2733 0.212891C10.696 0.212891 0.5 10.4089 0.5 22.9863C0.5 35.5636 10.696 45.7596 23.2733 45.7596Z" fill="black"/>
<path d="M30.4015 19.5617C29.8451 21.0459 29.1647 22.3447 28.3915 23.458C27.5258 24.6949 26.5053 25.6535 25.4229 26.3337C23.6604 27.4163 21.3102 27.911 19.3001 27.4472C18.9909 27.3852 18.7744 27.0451 18.8672 26.7359L20.9391 19.5617C21.0629 19.1905 21.4958 19.036 21.8049 19.2525C22.7019 19.902 23.3512 20.9533 23.6294 22.3757C23.7841 23.118 24.4643 23.6438 25.2373 23.6127C26.1651 23.5509 26.8145 22.7159 26.6599 21.7882C26.3816 20.3039 25.794 19.0669 24.9591 18.0464C24.3406 17.2734 23.5984 16.6858 22.7634 16.2529C22.4233 16.0673 22.2686 15.6344 22.4852 15.2942C23.2582 14.0573 24.2786 13.2842 25.6702 12.8204C26.4122 12.573 27.2162 12.5112 27.9894 12.573C28.7624 12.6658 29.4736 12.9131 29.9994 13.2842C30.7724 13.8409 31.1436 14.6758 31.1745 15.8509C31.2052 16.9022 30.927 18.2009 30.4013 19.5616L30.4015 19.5617ZM16.5481 23.6743C16.3935 24.2621 15.5587 24.2001 15.435 23.6126C15.2803 22.7157 15.404 21.7571 15.7751 20.8914C15.9607 20.4895 16.2081 20.0873 16.5481 19.7781C16.9501 19.3761 17.6614 19.7781 17.5068 20.3346L16.5481 23.6743ZM31.7931 10.8105C30.8346 10.0992 29.5976 9.66624 28.2679 9.51172C27.0927 9.38802 25.856 9.51172 24.7119 9.8828C23.042 10.4085 21.6505 11.3362 20.5991 12.635C19.9806 13.3772 19.4549 14.2739 19.0531 15.3253C19.022 15.418 18.8984 15.5109 18.8056 15.5109C17.9397 15.6036 17.1048 15.851 16.3008 16.2221C14.8166 16.9642 13.6415 18.1704 12.992 19.6236C11.6933 22.5612 12.2808 25.9319 14.4764 28.1893C14.6001 28.313 14.6929 28.4058 14.8165 28.5295C14.9711 28.684 15.0329 28.9006 14.9711 29.0861C14.631 30.3229 14.1672 31.8382 13.7342 33.2916C13.6105 33.7246 13.4868 34.1574 13.3631 34.5595C13.0849 35.5492 13.7961 36.5076 14.8165 36.5076C15.4968 36.5076 16.1152 36.0438 16.3007 35.3944C16.4244 34.9924 16.5481 34.5595 16.6718 34.1575C17.0119 32.9823 17.383 31.8072 17.6922 30.7559C17.785 30.4774 18.0942 30.292 18.3726 30.3848C19.1146 30.5704 19.9186 30.663 20.7535 30.694C21.0629 30.694 21.3722 30.694 21.7123 30.663C23.5675 30.5085 25.4848 29.921 27.0311 28.9623C28.4843 28.0656 29.7832 26.8285 30.8963 25.2515C31.8241 23.9528 32.628 22.4066 33.2775 20.675C33.9577 18.9124 34.2669 17.2734 34.2359 15.82C34.1742 13.6554 33.3392 11.9547 31.793 10.8106L31.7931 10.8105Z" fill="#FFE800"/>
</g>
<g clip-path="url(#clip1_6300_1887)">
<path d="M78.7991 20.6203C78.0317 22.6458 77.1004 24.4336 76.0341 25.9335C74.8413 27.6058 73.4717 28.9245 71.965 29.8513C69.5779 31.319 66.3456 32.005 63.5901 31.3845C63.1526 31.2857 62.8895 30.8378 63.014 30.4073L65.8468 20.6029C65.9961 20.0864 66.61 19.8767 67.0498 20.1868C68.2925 21.0628 69.1509 22.522 69.5444 24.4489C69.7539 25.4772 70.6905 26.1937 71.7386 26.1375C73.0011 26.0697 73.9083 24.8974 73.6621 23.6576C73.2633 21.6506 72.4905 19.9338 71.3544 18.5341C70.5091 17.4949 69.4897 16.6703 68.3376 16.0854C67.8561 15.8408 67.6788 15.2426 67.9608 14.7818C68.9986 13.084 70.3898 12.0261 72.2965 11.4179C73.3017 11.0951 74.4269 10.9774 75.4673 11.0822C76.5378 11.1891 77.4844 11.5267 78.2061 12.0566C79.2511 12.8263 79.7806 13.9774 79.8268 15.5733C79.8659 16.9971 79.5104 18.7433 78.7993 20.6203H78.7991ZM157.752 12.0497C157.603 12.4482 157.504 12.8449 157.353 13.2439C156.558 12.5973 156.06 11.8 156.159 10.9052C156.209 10.6555 156.308 10.4073 156.459 10.257H156.508C156.657 10.1081 156.855 10.0088 157.106 10.0088C157.205 10.0088 157.255 10.0584 157.354 10.0584H157.403C157.554 10.1081 157.653 10.2074 157.752 10.3563C157.852 10.5564 157.901 10.8556 157.901 11.1533C157.901 11.453 157.852 11.7504 157.752 12.0499L157.752 12.0497ZM174.051 23.4413C173.847 22.9292 173.449 22.5183 172.931 22.2826C172.651 22.1551 172.357 22.0913 172.054 22.0913C171.223 22.0913 170.484 22.5767 170.13 23.358L170.089 23.4624L170.055 23.5619L169.988 23.7123C168.617 26.791 166.318 31.945 163.928 31.945C163.807 31.945 163.745 31.9326 163.719 31.9254C163.719 31.9237 163.681 31.8726 163.681 31.8726C163.593 31.7537 163.497 31.4385 163.497 30.9176V30.8607C163.55 30.2 163.713 29.3495 163.956 28.4587L163.968 28.4142C164.158 27.5798 164.484 26.5826 164.828 25.5248C164.913 25.2606 165.001 24.9932 165.085 24.7326C165.304 24.0699 165.496 23.5172 165.662 23.0281C165.798 22.6313 165.919 22.277 166.031 21.944L166.04 21.9171C166.382 20.7942 166.619 20.0802 167.209 18.5567L167.229 18.4539C167.615 17.3398 167.062 16.1225 165.983 15.7311C165.467 15.5431 164.851 15.3465 164.046 15.1177L163.525 14.9389C162.551 14.6059 161.477 14.2371 160.504 13.8208C160.598 13.534 160.687 13.2557 160.763 13.0024C160.961 12.3433 161.057 11.7535 161.057 11.2024C161.057 10.2596 160.888 9.51232 160.529 8.85144L160.513 8.82456C159.97 7.89466 159.221 7.29376 158.287 7.04251L158.159 6.9732C157.88 6.91833 157.507 6.8548 157.105 6.8548C156.124 6.8548 155.213 7.18957 154.461 7.82735C154.339 7.9071 154.234 8.00795 154.151 8.12502C153.526 8.79457 153.132 9.61851 153.013 10.5149L153.008 10.5537C152.817 12.5628 153.573 14.2491 155.319 15.6915L155.032 16.4088L151.957 23.0932C151.906 23.1658 151.862 23.2422 151.822 23.3218L151.798 23.3749C150.387 26.6204 148.548 28.9731 146.331 30.3655C144.709 31.3823 142.821 31.8981 140.713 31.8981C140.609 31.8981 140.503 31.8981 140.4 31.8944H140.295C139.237 31.8499 138.366 31.5365 137.839 31.0102L137.788 30.9625C137.052 30.3191 136.928 29.1926 136.955 28.36V28.2554C136.992 27.5663 137.109 26.8079 137.32 25.908C138.653 25.5343 140.627 24.8786 142.581 24.0282C144.548 23.1956 146.18 22.2355 147.424 21.1812C148.691 20.136 149.685 18.6638 150.158 17.1279C150.389 16.3395 150.605 15.1719 150.318 14.0807C150.041 12.9151 149.394 11.9795 148.45 11.3735C147.619 10.7517 146.511 10.4382 145.154 10.4382C144.109 10.4382 143.061 10.7092 142.039 11.2459C141.077 11.7029 140.137 12.3744 139.322 13.1897L139.301 13.2126C137.655 14.9591 136.024 17.5122 134.827 20.2175C134.35 21.22 133.94 22.299 133.611 23.4275C133.56 23.5268 133.529 23.6223 133.51 23.7092C133.494 23.7658 133.48 23.8207 133.464 23.8758L133.462 23.884C132.046 27.0514 129.782 31.9439 127.478 31.9439H127.428C127.291 31.9439 127.23 31.921 127.218 31.9183C127.136 31.7646 127.047 31.4227 127.047 30.9165V30.8165C127.047 30.1558 127.2 29.2828 127.507 28.2085C127.797 27.146 128.181 25.9955 128.614 24.8892C128.661 24.773 128.707 24.6382 128.758 24.4916C128.818 24.3172 128.88 24.137 128.953 23.9669L128.971 23.9213L129.028 23.7687C129.786 21.7507 130.931 18.7014 130.931 16.1305C130.931 12.4271 128.891 10.3878 125.187 10.3878C124.393 10.3878 123.608 10.5617 122.823 10.9152C122.974 10.4858 123.143 9.9886 123.344 9.38725C123.44 9.15644 123.501 8.96384 123.55 8.80768C123.581 8.71127 123.607 8.62774 123.634 8.55976L123.661 8.48534C123.894 7.74827 124.263 6.7284 124.621 5.74185L124.891 4.99366C125.086 4.45718 125.055 3.87783 124.804 3.36223C124.56 2.86085 124.135 2.47898 123.608 2.28749C123.377 2.20352 123.136 2.16064 122.891 2.16064C122.026 2.16064 121.23 2.69468 120.913 3.48863L120.895 3.53817C120.748 3.96402 120.612 4.36166 120.486 4.73087C120.144 5.73341 119.873 6.52558 119.66 7.09449L119.354 7.96041L119.34 8.00151C119.234 8.34739 119.062 8.84411 118.863 9.41902C118.708 9.8682 118.536 10.364 118.364 10.8787C118.141 11.4172 117.954 11.9608 117.589 13.0207L117.409 13.5434L117.396 13.6198C116.785 15.1182 115.409 18.9635 113.939 23.0794C113.899 23.1414 113.862 23.2054 113.829 23.2716L113.812 23.3069C112.685 25.7858 111.863 27.3468 111.057 28.534C110.175 29.8566 109.411 30.7143 108.663 31.2261C108.34 31.4414 107.998 31.606 107.588 31.7444C107.143 31.8766 106.765 31.9437 106.464 31.9437H106.415C106.291 31.9437 106.205 31.9012 106.186 31.8781L106.121 31.8073C106.069 31.7553 105.934 31.494 105.934 30.9162V30.8163C105.934 30.274 106.145 29.3412 106.351 28.4355C106.674 27.2544 107.076 25.9811 107.515 24.7517C107.616 24.468 107.734 24.1273 107.868 23.7385C108.068 23.1598 108.295 22.5038 108.56 21.7672C108.695 21.3927 108.848 20.9732 109.015 20.5154C109.394 19.4738 109.867 18.1769 110.361 16.7649C110.407 16.6274 110.477 16.4319 110.565 16.1858C110.707 15.7908 110.901 15.2474 111.118 14.6043H114.431C115.614 14.6043 116.54 13.6782 116.54 12.496C116.54 11.333 115.594 10.3876 114.431 10.3876H112.593C113.393 8.03261 114.212 5.63211 114.417 5.1385L114.435 5.09252C114.831 4.00201 114.256 2.78821 113.152 2.38657C112.922 2.30326 112.682 2.26039 112.439 2.26039C111.556 2.26039 110.758 2.82197 110.449 3.65879C110.27 4.12485 109.775 5.56724 109.149 7.39039C108.864 8.21744 108.56 9.10535 108.26 9.97416C108.201 10.1139 108.151 10.2518 108.105 10.3874H105.02C103.857 10.3874 102.911 11.333 102.911 12.4957C102.911 13.678 103.838 14.6041 105.02 14.6041H106.656C106.515 15.0055 106.436 15.2443 106.391 15.4198C105.788 17.0008 105.218 18.6061 104.715 20.0247L104.62 20.2941C104.183 21.4851 103.84 22.4263 103.636 23.033L103.635 23.0336C103.568 23.1347 103.507 23.2427 103.456 23.3562L103.415 23.4602L103.382 23.5597C101.978 26.7041 99.6373 31.943 97.2522 31.943C97.1067 31.943 97.0218 31.9232 96.9898 31.909C96.9083 31.7533 96.8214 31.4132 96.8214 30.9151V30.8161C96.8214 30.2227 97.0678 29.2428 97.2824 28.4562L97.2929 28.4118C97.5233 27.4004 97.8973 26.1672 98.4041 24.7515L98.4148 24.7182C98.6785 23.8978 99.0367 22.9181 99.4178 21.8798C99.6728 21.1821 99.9368 20.4608 100.195 19.7257C101.287 16.7776 102.168 14.418 102.676 13.0786C102.878 12.5666 102.861 11.9766 102.629 11.4574C102.395 10.9347 101.976 10.5435 101.45 10.352C101.22 10.2669 100.979 10.2245 100.734 10.2245C99.8677 10.2245 99.074 10.7577 98.7496 11.5656L98.5761 12.0157C97.536 11.0625 96.2477 10.4902 94.892 10.3891L94.8123 10.3876H94.3463C91.456 10.4373 88.7943 12.4355 86.4287 16.3366C83.9108 20.5994 82.3514 26.277 82.2981 29.2886C82.2361 31.2248 82.5974 32.7734 83.3684 33.8897C84.2334 35.2696 85.5588 35.9996 87.3237 36.06C87.3662 36.062 87.4068 36.062 87.4493 36.062C89.4413 36.062 91.3106 35.1494 93.0278 33.3478C93.1482 33.654 93.2935 33.9448 93.464 34.2175L93.4955 34.2671C94.371 35.5055 95.6522 36.1593 97.2029 36.1593H97.2527C99.278 36.1593 100.942 35.1794 102.338 33.7126L102.339 33.7122C102.529 34.08 102.761 34.4148 103.034 34.7118C103.851 35.6459 105.051 36.1602 106.415 36.1602H106.465C107.053 36.1602 107.95 36.0898 108.892 35.7579C109.421 35.5935 109.93 35.378 110.411 35.1159C110.655 35.5311 111.04 35.8688 111.529 36.0465L111.612 36.0731C111.806 36.1262 112.006 36.1527 112.206 36.1527C113.144 36.1527 113.942 35.5815 114.242 34.6969C114.833 33.0237 116.273 28.9902 117.627 25.2193L117.691 25.0825C117.711 25.0392 117.728 24.9959 117.745 24.9521L117.767 24.9181C118.641 22.6038 120.235 19.2916 122.079 16.9493C123.799 14.8325 124.826 14.6041 125.187 14.6041C126.3 14.6041 126.714 15.0175 126.714 16.1298C126.714 18.1729 125.512 21.1359 124.998 22.4012L124.961 22.5089C124.878 22.8006 124.799 23.0416 124.685 23.2711L124.635 23.3866C124.149 24.7351 123.752 25.9442 123.42 27.0833L123.409 27.1233C123.061 28.5144 122.83 29.6662 122.83 30.7663V30.916C122.83 32.1947 123.119 33.3056 123.697 34.2313C124.514 35.4931 125.804 36.1604 127.428 36.1604H127.478C130.034 36.1604 132.034 34.5521 133.634 32.4008L133.635 32.402C133.968 33.0202 134.393 33.5784 134.909 34.0727C136.177 35.2861 137.978 35.9896 140.117 36.1082L140.175 36.11H140.303C140.512 36.1189 140.723 36.1227 140.928 36.1227C143.7 36.1227 146.267 35.3945 148.566 33.9521C150.949 32.4268 152.92 30.2549 154.546 27.353C154.681 27.2006 154.795 27.0254 154.883 26.8321L158.916 18.1193L158.939 18.0203C158.939 18.0203 159.015 17.8412 159.031 17.8041C160.011 18.21 160.995 18.5394 161.891 18.8404C162.097 18.9097 162.299 18.9786 162.499 19.0459C162.37 19.4144 162.26 19.751 162.147 20.0982C162.09 20.2664 161.964 20.6474 161.964 20.6474C161.762 21.3062 161.514 22.0964 161.08 23.4004C160.603 24.7342 160.194 26.0824 159.861 27.4077C159.469 28.8107 159.278 29.9093 159.278 30.7667V30.9156C159.278 32.1945 159.567 33.3054 160.137 34.2178L160.171 34.2671C161.044 35.5058 162.327 36.1593 163.878 36.1593H163.928C169.143 36.1593 172.043 29.576 173.962 25.2198L173.998 25.1294L174.033 25.023C174.25 24.5094 174.257 23.9495 174.051 23.4393L174.051 23.4413ZM145.155 14.6559C145.688 14.6559 145.952 14.7638 146.08 14.8558L146.108 14.8754C146.153 14.9038 146.177 14.9216 146.218 15.0597C146.25 15.2068 146.243 15.4936 146.133 15.8623C145.89 16.6296 145.391 17.3541 144.726 17.9014C143.817 18.6525 142.525 19.4056 140.87 20.148C140.332 20.3977 139.765 20.6387 139.169 20.8673C140.101 19.0355 141.262 17.3345 142.384 16.1742L142.403 16.1529C142.786 15.7368 143.282 15.3503 143.917 14.9764C144.347 14.7676 144.774 14.6561 145.155 14.6561L145.155 14.6559ZM87.4755 31.8473L87.4471 31.8457C87.0907 31.8137 86.972 31.6984 86.896 31.5869C86.6443 31.1653 86.5169 30.4251 86.5149 29.385C86.5681 26.9401 87.9326 22.0944 90.0503 18.5212C91.5386 16.0396 93.0751 14.6485 94.3792 14.6061H94.4076C94.4059 14.6061 94.4007 14.6061 94.3934 14.6046V14.599L94.5938 14.6539C95.0667 14.6839 95.5097 14.9109 95.873 15.3059C96.2274 15.694 96.4454 16.3975 96.4896 17.2903C96.3232 17.6782 96.1583 18.0978 95.9866 18.5427C95.7968 19.0284 95.6022 19.5293 95.3806 20.0451L95.368 20.0751C93.6404 24.4776 90.75 31.8473 87.4755 31.8473ZM59.8563 26.2425C59.6283 27.032 58.4891 26.9701 58.3487 26.1603C58.1392 24.9154 58.3047 23.6268 58.8304 22.4321C59.0806 21.8632 59.441 21.3522 59.8808 20.9153C60.4467 20.3532 61.3917 20.9244 61.1708 21.6903L59.8563 26.2423V26.2425ZM80.6876 8.68372C79.3642 7.70939 77.7021 7.09671 75.8881 6.91344C74.2681 6.75017 72.5845 6.92877 71.0209 7.42815C68.7225 8.16034 66.8273 9.4228 65.3902 11.1757C64.5454 12.2065 63.8388 13.4234 63.2591 14.8576C63.1995 15.0042 63.0646 15.1053 62.9071 15.1226C61.7303 15.2501 60.5716 15.5833 59.4979 16.112C57.4699 17.1126 55.8692 18.7567 54.9944 20.7473C53.239 24.7346 54.0372 29.3021 57.0291 32.3828C57.1806 32.5408 57.3384 32.6936 57.5001 32.8409C57.7163 33.038 57.8043 33.3379 57.7226 33.6186C57.2335 35.2996 56.6098 37.3691 56.0039 39.3791C55.8294 39.9598 55.6528 40.5456 55.4779 41.1263C55.0764 42.4587 56.0745 43.8004 57.4659 43.8004C58.4047 43.8004 59.2322 43.1858 59.5026 42.2874C59.6723 41.7223 59.8439 41.1525 60.0145 40.5867C60.4927 38.9997 60.9838 37.3733 61.413 35.9236C61.5301 35.528 61.9501 35.2972 62.3503 35.3978C63.3799 35.6568 64.4671 35.7926 65.597 35.8012C66.0243 35.8057 66.4543 35.7883 66.8882 35.7555C69.4308 35.5571 72.0216 34.7329 74.1587 33.4205C76.1472 32.1976 77.9268 30.4946 79.4468 28.3625C80.7205 26.5726 81.8217 24.4663 82.7178 22.1053C83.6337 19.6875 84.0699 17.4507 84.0134 15.456C83.9328 12.5673 82.7834 10.2254 80.6876 8.68416V8.68372Z" fill="black"/>
</g>
<defs>
<clipPath id="clip0_6300_1887">
<rect width="45.5737" height="45.5737" fill="white" transform="translate(0.5 0.212891)"/>
</clipPath>
<clipPath id="clip1_6300_1887">
<rect width="120.205" height="41.6749" fill="white" transform="translate(54.0737 2.16211)"/>
</clipPath>
</defs>
</svg>
