<svg width="178" height="30" viewBox="0 0 178 30" fill="none" xmlns="http://www.w3.org/2000/svg">
<path d="M45.01 6.41204L49.5954 20.2799H49.776L54.3528 6.41204H57.8627L51.6515 24.0308H47.7113L41.5086 6.41204H45.01ZM62.7804 24.2888C61.4556 24.2888 60.3114 24.0136 59.3479 23.463C58.3901 22.9067 57.6531 22.1209 57.1369 21.1058C56.6207 20.0849 56.3627 18.8834 56.3627 17.5012C56.3627 16.1419 56.6207 14.949 57.1369 13.9224C57.6588 12.89 58.3872 12.0871 59.322 11.5136C60.2569 10.9343 61.3552 10.6447 62.617 10.6447C63.4314 10.6447 64.1999 10.7766 64.9225 11.0404C65.6509 11.2985 66.2933 11.6999 66.8496 12.2448C67.4116 12.7896 67.8533 13.4836 68.1744 14.3267C68.4956 15.164 68.6562 16.162 68.6562 17.3205V18.2754H57.8251V16.1763H65.671C65.6652 15.5799 65.5362 15.0493 65.2839 14.5848C65.0315 14.1145 64.6788 13.7446 64.2257 13.475C63.7783 13.2055 63.2564 13.0707 62.66 13.0707C62.0234 13.0707 61.4642 13.2255 60.9824 13.5352C60.5006 13.8392 60.125 14.2407 59.8554 14.7396C59.5916 15.2329 59.4568 15.7749 59.4511 16.3656V18.198C59.4511 18.9665 59.5916 19.6261 59.8726 20.1767C60.1537 20.7215 60.5465 21.1402 61.0512 21.4327C61.5559 21.7195 62.1467 21.8628 62.8234 21.8628C63.2765 21.8628 63.6866 21.7997 64.0536 21.6736C64.4207 21.5417 64.739 21.3495 65.0086 21.0972C65.2781 20.8448 65.4817 20.5323 65.6194 20.1595L68.5271 20.4864C68.3436 21.2549 67.9938 21.9259 67.4776 22.4994C66.9672 23.0672 66.3133 23.5089 65.5161 23.8243C64.7189 24.134 63.807 24.2888 62.7804 24.2888ZM72.7093 16.2882V24.0308H69.595V10.8167H72.5716V13.0621H72.7265C73.0304 12.3222 73.5151 11.7344 74.1804 11.2985C74.8514 10.8626 75.6801 10.6447 76.6666 10.6447C77.5785 10.6447 78.3728 10.8397 79.0496 11.2297C79.7321 11.6197 80.2597 12.1846 80.6325 12.9244C81.0111 13.6643 81.1975 14.5618 81.1917 15.6171V24.0308H78.0775V16.0989C78.0775 15.2157 77.8481 14.5246 77.3892 14.0256C76.9362 13.5266 76.3081 13.2771 75.5052 13.2771C74.9604 13.2771 74.4757 13.3976 74.0513 13.6385C73.6326 13.8736 73.3029 14.2149 73.062 14.6622C72.8268 15.1096 72.7093 15.6515 72.7093 16.2882ZM89.2602 10.8167V13.2255H81.6638V10.8167H89.2602ZM83.5393 7.65085H86.6535V20.0562C86.6535 20.4749 86.7166 20.7961 86.8428 21.0197C86.9747 21.2377 87.1468 21.3868 87.359 21.4671C87.5712 21.5474 87.8063 21.5875 88.0644 21.5875C88.2594 21.5875 88.4372 21.5732 88.5978 21.5445C88.7641 21.5158 88.8903 21.49 88.9763 21.4671L89.5011 23.9017C89.3348 23.9591 89.0967 24.0222 88.787 24.091C88.4831 24.1598 88.1103 24.2 87.6687 24.2114C86.8887 24.2344 86.1861 24.1168 85.561 23.8587C84.9358 23.5949 84.4397 23.1877 84.0727 22.6371C83.7113 22.0865 83.5335 21.3983 83.5393 20.5724V7.65085ZM98.5912 18.4733V10.8167H101.705V24.0308H98.6858V21.6822H98.5481C98.2499 22.422 97.7595 23.0271 97.0771 23.4974C96.4003 23.9677 95.5658 24.2028 94.5736 24.2028C93.7076 24.2028 92.9419 24.0107 92.2766 23.6264C91.6171 23.2364 91.1009 22.6715 90.7281 21.9317C90.3553 21.1861 90.1689 20.2856 90.1689 19.2303V10.8167H93.2832V18.7486C93.2832 19.5859 93.5126 20.2512 93.9714 20.7445C94.4302 21.2377 95.0324 21.4843 95.778 21.4843C96.2368 21.4843 96.6813 21.3725 97.1115 21.1488C97.5416 20.9251 97.8943 20.5925 98.1696 20.1509C98.4506 19.7035 98.5912 19.1443 98.5912 18.4733ZM103.212 24.0308V10.8167H106.232V13.0191H106.369C106.61 12.2563 107.023 11.6684 107.608 11.2555C108.199 10.8368 108.873 10.6275 109.63 10.6275C109.802 10.6275 109.994 10.6361 110.206 10.6533C110.424 10.6647 110.605 10.6848 110.748 10.7135V13.5782C110.616 13.5324 110.407 13.4922 110.12 13.4578C109.839 13.4177 109.567 13.3976 109.303 13.3976C108.735 13.3976 108.225 13.5209 107.772 13.7675C107.324 14.0084 106.971 14.3439 106.713 14.774C106.455 15.2042 106.326 15.7003 106.326 16.2623V24.0308H103.212ZM116.427 24.2888C115.102 24.2888 113.958 24.0136 112.995 23.463C112.037 22.9067 111.3 22.1209 110.784 21.1058C110.268 20.0849 110.009 18.8834 110.009 17.5012C110.009 16.1419 110.268 14.949 110.784 13.9224C111.306 12.89 112.034 12.0871 112.969 11.5136C113.904 10.9343 115.002 10.6447 116.264 10.6447C117.078 10.6447 117.847 10.7766 118.569 11.0404C119.298 11.2985 119.94 11.6999 120.496 12.2448C121.058 12.7896 121.5 13.4836 121.821 14.3267C122.142 15.164 122.303 16.162 122.303 17.3205V18.2754H111.472V16.1763H119.318C119.312 15.5799 119.183 15.0493 118.931 14.5848C118.678 14.1145 118.326 13.7446 117.872 13.475C117.425 13.2055 116.903 13.0707 116.307 13.0707C115.67 13.0707 115.111 13.2255 114.629 13.5352C114.147 13.8392 113.772 14.2407 113.502 14.7396C113.238 15.2329 113.104 15.7749 113.098 16.3656V18.198C113.098 18.9665 113.238 19.6261 113.519 20.1767C113.8 20.7215 114.193 21.1402 114.698 21.4327C115.203 21.7195 115.793 21.8628 116.47 21.8628C116.923 21.8628 117.333 21.7997 117.7 21.6736C118.067 21.5417 118.386 21.3495 118.655 21.0972C118.925 20.8448 119.129 20.5323 119.266 20.1595L122.174 20.4864C121.99 21.2549 121.641 21.9259 121.124 22.4994C120.614 23.0672 119.96 23.5089 119.163 23.8243C118.366 24.134 117.454 24.2888 116.427 24.2888ZM126.919 9.08754V6.41204H140.976V9.08754H135.53V24.0308H132.364V9.08754H126.919ZM143.857 24.2975C143.019 24.2975 142.265 24.1483 141.594 23.8501C140.929 23.5461 140.401 23.0988 140.011 22.508C139.627 21.9173 139.435 21.1889 139.435 20.3229C139.435 19.5773 139.572 18.9608 139.848 18.4733C140.123 17.9858 140.499 17.5958 140.975 17.3033C141.451 17.0108 141.987 16.79 142.583 16.6409C143.186 16.486 143.808 16.3742 144.45 16.3054C145.224 16.2251 145.852 16.1534 146.334 16.0903C146.816 16.0215 147.166 15.9182 147.384 15.7806C147.607 15.6372 147.719 15.4164 147.719 15.1182V15.0665C147.719 14.4185 147.527 13.9166 147.143 13.561C146.759 13.2055 146.205 13.0277 145.483 13.0277C144.72 13.0277 144.115 13.194 143.667 13.5266C143.226 13.8593 142.927 14.2521 142.773 14.7052L139.865 14.2923C140.094 13.4893 140.473 12.8183 141 12.2792C141.528 11.7344 142.173 11.3272 142.936 11.0576C143.699 10.7823 144.542 10.6447 145.465 10.6447C146.102 10.6447 146.736 10.7192 147.367 10.8683C147.997 11.0175 148.574 11.2641 149.096 11.6082C149.618 11.9466 150.036 12.4083 150.352 12.9932C150.673 13.5782 150.834 14.3095 150.834 15.187V24.0308H147.84V22.2156H147.736C147.547 22.5826 147.281 22.9267 146.936 23.2479C146.598 23.5633 146.171 23.8186 145.655 24.0136C145.144 24.2028 144.545 24.2975 143.857 24.2975ZM144.665 22.0091C145.29 22.0091 145.832 21.8858 146.291 21.6392C146.75 21.3868 147.103 21.0542 147.349 20.6412C147.602 20.2283 147.728 19.7781 147.728 19.2906V17.7334C147.63 17.8137 147.464 17.8883 147.229 17.9571C146.999 18.0259 146.741 18.0862 146.455 18.1378C146.168 18.1894 145.884 18.2353 145.603 18.2754C145.322 18.3156 145.078 18.35 144.872 18.3787C144.407 18.4417 143.991 18.545 143.624 18.6884C143.257 18.8317 142.968 19.0325 142.755 19.2906C142.543 19.5429 142.437 19.8698 142.437 20.2713C142.437 20.8448 142.646 21.2778 143.065 21.5703C143.484 21.8628 144.017 22.0091 144.665 22.0091ZM152.407 24.0308V6.41204H155.521V13.0019H155.65C155.811 12.6807 156.037 12.3394 156.33 11.9781C156.622 11.6111 157.018 11.2985 157.517 11.0404C158.016 10.7766 158.653 10.6447 159.427 10.6447C160.448 10.6447 161.368 10.9056 162.188 11.4275C163.014 11.9437 163.668 12.7094 164.15 13.7245C164.637 14.7339 164.881 15.9727 164.881 17.4409C164.881 18.892 164.643 20.125 164.167 21.1402C163.691 22.1553 163.043 22.9296 162.223 23.463C161.403 23.9964 160.473 24.263 159.435 24.263C158.678 24.263 158.05 24.1369 157.551 23.8845C157.052 23.6322 156.651 23.3282 156.347 22.9726C156.049 22.6113 155.816 22.27 155.65 21.9489H155.469V24.0308H152.407ZM155.461 17.4237C155.461 18.2783 155.581 19.0267 155.822 19.6691C156.069 20.3114 156.422 20.8133 156.88 21.1746C157.345 21.5302 157.907 21.708 158.566 21.708C159.255 21.708 159.831 21.5245 160.296 21.1574C160.76 20.7846 161.11 20.277 161.345 19.6347C161.586 18.9866 161.707 18.2496 161.707 17.4237C161.707 16.6036 161.589 15.8752 161.354 15.2386C161.119 14.602 160.769 14.103 160.304 13.7417C159.84 13.3804 159.26 13.1997 158.566 13.1997C157.901 13.1997 157.336 13.3746 156.872 13.7245C156.407 14.0743 156.054 14.5647 155.814 15.1956C155.578 15.8265 155.461 16.5692 155.461 17.4237ZM176.277 14.3095L173.438 14.6192C173.357 14.3324 173.217 14.0629 173.016 13.8105C172.821 13.5582 172.557 13.3546 172.225 13.1997C171.892 13.0449 171.485 12.9674 171.003 12.9674C170.355 12.9674 169.81 13.108 169.369 13.389C168.933 13.67 168.718 14.0342 168.723 14.4815C168.718 14.8658 168.858 15.1784 169.145 15.4193C169.437 15.6601 169.919 15.858 170.59 16.0129L172.844 16.4946C174.094 16.7642 175.024 17.1915 175.631 17.7765C176.245 18.3615 176.555 19.1271 176.561 20.0734C176.555 20.905 176.311 21.6392 175.829 22.2758C175.353 22.9067 174.691 23.3999 173.842 23.7555C172.993 24.1111 172.018 24.2888 170.917 24.2888C169.3 24.2888 167.998 23.9505 167.011 23.2737C166.025 22.5912 165.437 21.642 165.248 20.4261L168.285 20.1337C168.422 20.7301 168.715 21.1803 169.162 21.4843C169.609 21.7883 170.192 21.9403 170.908 21.9403C171.648 21.9403 172.242 21.7883 172.689 21.4843C173.142 21.1803 173.369 20.8047 173.369 20.3573C173.369 19.9788 173.223 19.6662 172.93 19.4196C172.643 19.173 172.196 18.9837 171.588 18.8518L169.334 18.3787C168.067 18.1148 167.129 17.6704 166.521 17.0452C165.913 16.4143 165.612 15.6171 165.618 14.6536C165.612 13.8392 165.833 13.1338 166.28 12.5373C166.733 11.9351 167.361 11.4705 168.164 11.1436C168.973 10.811 169.905 10.6447 170.96 10.6447C172.509 10.6447 173.727 10.9744 174.616 11.634C175.511 12.2935 176.064 13.1854 176.277 14.3095Z" fill="white"/>
<path d="M27.3593 23.9141L19.8461 19.7867L19.7816 19.8512L23.909 27.3643L21.3778 29.8956L15.8477 18.9161L18.911 15.8528L29.8905 21.3828L27.3593 23.9141Z" fill="white"/>
<path d="M2.53674 5.98144L10.0499 10.1088L10.1144 10.0443L5.98699 2.5312L8.51824 -4.74538e-05L14.0483 10.9795L10.985 14.0428L0.00549316 8.5127L2.53674 5.98144Z" fill="white"/>
<path d="M5.98151 27.3591L10.1089 19.846L10.0444 19.7815L2.53127 23.9089L1.50165e-05 21.3776L10.9795 15.8476L14.0428 18.9109L8.51276 29.8904L5.98151 27.3591Z" fill="white"/>
<path d="M23.9145 2.53638L19.7871 10.0495L19.8516 10.114L27.3647 5.98662L29.896 8.51787L18.9165 14.0479L15.8532 10.9846L21.3832 0.00512695L23.9145 2.53638Z" fill="white"/>
<rect x="12.6875" y="14.9412" width="3.18976" height="3.18976" transform="rotate(-45 12.6875 14.9412)" fill="white"/>
</svg>
