<svg width="30" height="31" viewBox="0 0 30 31" fill="none" xmlns="http://www.w3.org/2000/svg">
<path fill-rule="evenodd" clip-rule="evenodd" d="M14.1258 19.6179L3.74446 22.6279L6.32841 12.1324L9.55184 15.2269L14.7515 9.81061C14.928 9.62674 15.1719 9.5228 15.4268 9.5228C15.6816 9.5228 15.9255 9.62674 16.102 9.81061L19.9199 13.7876L25.5351 7.93845C25.8932 7.56551 26.4857 7.55341 26.8587 7.91144C27.2316 8.26947 27.2437 8.86204 26.8857 9.23498L20.5952 15.7875C20.4187 15.9714 20.1748 16.0754 19.9199 16.0754C19.665 16.0754 19.4212 15.9714 19.2447 15.7875L15.4268 11.8106L10.9024 16.5234L14.1258 19.6179Z" fill="#FF3838"/>
</svg>
