<svg width="27" height="27" viewBox="0 0 27 27" fill="none" xmlns="http://www.w3.org/2000/svg">
<g clip-path="url(#clip0_203_15340)">
<path d="M23.5246 19.9329C23.5246 20.459 23.0981 20.8855 22.572 20.8855H5.07326C4.54712 20.8855 4.12061 20.459 4.12061 19.9329C4.12061 19.4067 4.54712 18.9802 5.07326 18.9802H5.09081V12.3412C5.09081 7.58936 9.00071 3.73779 13.8226 3.73779C18.6445 3.73779 22.5544 7.58936 22.5544 12.3412V18.9802H22.572C23.0981 18.9802 23.5246 19.4067 23.5246 19.9329ZM7.03121 18.9802H20.614V12.3412C20.614 8.64204 17.5734 5.6431 13.8226 5.6431C10.0718 5.6431 7.03121 8.64204 7.03121 12.3412V18.9802ZM11.6408 22.8786C11.3769 22.3449 11.8797 21.8382 12.4751 21.8382H15.1701C15.7655 21.8382 16.2684 22.3449 16.0044 22.8786C15.8875 23.115 15.7305 23.3329 15.5377 23.5222C15.0828 23.9689 14.4659 24.2198 13.8226 24.2198C13.1793 24.2198 12.5624 23.9689 12.1075 23.5222C11.9147 23.3329 11.7577 23.115 11.6408 22.8786Z" fill="#FCFCFD"/>
</g>
<defs>
<clipPath id="clip0_203_15340">
<rect width="25.872" height="25.872" fill="white" transform="translate(0.886719 0.503906)"/>
</clipPath>
</defs>
</svg>
