<svg width="28" height="28" viewBox="0 0 28 28" fill="none" xmlns="http://www.w3.org/2000/svg">
<path d="M6.99984 11.0834C6.99984 7.53955 9.87268 4.66671 13.4165 4.66671C16.5557 4.66671 19.1705 6.92209 19.7247 9.90116C19.8024 10.3189 20.1011 10.6614 20.5044 10.7951C22.827 11.5654 24.4998 13.7556 24.4998 16.3334C24.4998 19.555 21.8882 22.1667 18.6665 22.1667C18.0222 22.1667 17.4998 22.689 17.4998 23.3334C17.4998 23.9777 18.0222 24.5 18.6665 24.5C23.1768 24.5 26.8332 20.8437 26.8332 16.3334C26.8332 12.9588 24.7871 10.0648 21.8705 8.81955C20.8725 5.08438 17.4669 2.33337 13.4165 2.33337C8.58401 2.33337 4.6665 6.25088 4.6665 11.0834C4.6665 11.2004 4.66881 11.3169 4.67337 11.4328C2.57873 12.6413 1.1665 14.9047 1.1665 17.5C1.1665 21.366 4.30051 24.5 8.1665 24.5C8.81084 24.5 9.33317 23.9777 9.33317 23.3334C9.33317 22.689 8.81084 22.1667 8.1665 22.1667C5.58918 22.1667 3.49984 20.0774 3.49984 17.5C3.49984 15.5665 4.67604 13.9049 6.3566 13.197C6.84291 12.9921 7.13116 12.4864 7.05956 11.9635C7.02023 11.6763 6.99984 11.3826 6.99984 11.0834Z" fill="#475367"/>
<path d="M13.2247 16.6281C13.6668 16.2351 14.3329 16.2351 14.7749 16.6281L16.5249 18.1836C17.0065 18.6117 17.0499 19.3491 16.6218 19.8307C16.2473 20.252 15.6361 20.3379 15.1665 20.0662V25.6667C15.1665 26.311 14.6442 26.8334 13.9998 26.8334C13.3555 26.8334 12.8332 26.311 12.8332 25.6667V20.0662C12.3636 20.3379 11.7523 20.252 11.3779 19.8307C10.9498 19.3491 10.9932 18.6117 11.4747 18.1836L13.2247 16.6281Z" fill="#475367"/>
</svg>
