<svg width="23" height="23" viewBox="0 0 23 23" fill="none" xmlns="http://www.w3.org/2000/svg">
<path fill-rule="evenodd" clip-rule="evenodd" d="M11.6615 7.65161H18.3385C18.8657 7.65159 19.3205 7.65158 19.695 7.68218C20.0904 7.71448 20.4836 7.7858 20.862 7.97859C21.4265 8.26621 21.8854 8.72515 22.173 9.28964C22.3658 9.66802 22.4371 10.0612 22.4694 10.4566C22.5 10.8312 22.5 11.2859 22.5 11.8131V18.4901C22.5 19.0173 22.5 19.4721 22.4694 19.8466C22.4371 20.242 22.3658 20.6352 22.173 21.0136C21.8854 21.5781 21.4265 22.037 20.862 22.3246C20.4836 22.5174 20.0904 22.5887 19.695 22.621C19.3204 22.6516 18.8657 22.6516 18.3385 22.6516H11.6615C11.1343 22.6516 10.6796 22.6516 10.305 22.621C9.90963 22.5887 9.51641 22.5174 9.13803 22.3246C8.57354 22.037 8.1146 21.5781 7.82698 21.0136C7.63419 20.6352 7.56287 20.242 7.53057 19.8466C7.49997 19.4721 7.49998 19.0173 7.5 18.4902V11.8131C7.49998 11.2859 7.49997 10.8312 7.53057 10.4566C7.56287 10.0612 7.63419 9.66802 7.82698 9.28964C8.1146 8.72515 8.57354 8.26621 9.13803 7.97859C9.51641 7.7858 9.90963 7.71448 10.305 7.68218C10.6795 7.65158 11.1343 7.65159 11.6615 7.65161Z" fill="white"/>
<path d="M11.3385 0.651612H4.66146C4.13434 0.651595 3.67953 0.65158 3.30497 0.682183C2.90963 0.714484 2.51641 0.7858 2.13803 0.978594C1.57354 1.26621 1.1146 1.72516 0.826983 2.28964C0.634189 2.66802 0.562873 3.06124 0.530572 3.45659C0.499969 3.83114 0.499984 4.28588 0.500001 4.81301V11.4902C0.499984 12.0173 0.499969 12.4721 0.530572 12.8466C0.562873 13.242 0.634189 13.6352 0.826983 14.0136C1.1146 14.5781 1.57354 15.037 2.13803 15.3246C2.51641 15.5174 2.90963 15.5887 3.30497 15.621C3.67954 15.6516 4.1343 15.6516 4.66145 15.6516H5.5L5.49998 11.7708C5.49987 11.2821 5.49974 10.7523 5.53721 10.2937C5.57961 9.77472 5.68457 9.089 6.04496 8.38169C6.52433 7.44088 7.28923 6.67597 8.23004 6.19661C8.93736 5.83621 9.62308 5.73126 10.1421 5.68885C10.6007 5.65138 11.1305 5.65151 11.6191 5.65163L15.5 5.65164V4.81309C15.5 4.28595 15.5 3.83116 15.4694 3.45659C15.4371 3.06124 15.3658 2.66802 15.173 2.28964C14.8854 1.72516 14.4265 1.26621 13.862 0.978594C13.4836 0.7858 13.0904 0.714484 12.695 0.682183C12.3205 0.65158 11.8657 0.651595 11.3385 0.651612Z" fill="white"/>
</svg>
