<svg width="24" height="25" viewBox="0 0 24 25" fill="none" xmlns="http://www.w3.org/2000/svg">
<path d="M11.2929 2.79289C11.6834 2.40237 12.3166 2.40237 12.7071 2.79289L16.7071 6.79289C17.0976 7.18342 17.0976 7.81658 16.7071 8.20711C16.3166 8.59763 15.6834 8.59763 15.2929 8.20711L13 5.91421L13 15.5C13 16.0523 12.5523 16.5 12 16.5C11.4477 16.5 11 16.0523 11 15.5L11 5.91421L8.70711 8.20711C8.31658 8.59763 7.68342 8.59763 7.29289 8.20711C6.90237 7.81658 6.90237 7.18342 7.29289 6.79289L11.2929 2.79289Z" fill="white"/>
<path d="M3 11.5C3.55229 11.5 4 11.9477 4 12.5V16.7C4 17.5566 4.00078 18.1389 4.03755 18.589C4.07337 19.0274 4.1383 19.2516 4.21799 19.408C4.40973 19.7843 4.7157 20.0903 5.09202 20.282C5.24842 20.3617 5.47262 20.4266 5.91104 20.4624C6.36113 20.4992 6.94342 20.5 7.8 20.5H16.2C17.0566 20.5 17.6389 20.4992 18.089 20.4624C18.5274 20.4266 18.7516 20.3617 18.908 20.282C19.2843 20.0903 19.5903 19.7843 19.782 19.408C19.8617 19.2516 19.9266 19.0274 19.9624 18.589C19.9992 18.1389 20 17.5566 20 16.7V12.5C20 11.9477 20.4477 11.5 21 11.5C21.5523 11.5 22 11.9477 22 12.5V16.7413C22 17.5463 22 18.2106 21.9558 18.7518C21.9099 19.3139 21.8113 19.8306 21.564 20.316C21.1805 21.0686 20.5686 21.6805 19.816 22.064C19.3306 22.3113 18.8139 22.4099 18.2518 22.4558C17.7106 22.5 17.0463 22.5 16.2413 22.5H7.75873C6.95374 22.5 6.28938 22.5 5.74818 22.4558C5.18608 22.4099 4.66937 22.3113 4.18404 22.064C3.43139 21.6805 2.81947 21.0686 2.43598 20.316C2.18868 19.8306 2.09012 19.3139 2.04419 18.7518C1.99998 18.2106 1.99999 17.5463 2 16.7413V12.5C2 11.9477 2.44772 11.5 3 11.5Z" fill="white"/>
</svg>
