<svg width="25" height="24" viewBox="0 0 25 24" fill="none" xmlns="http://www.w3.org/2000/svg">
<path d="M13.4668 3C13.4668 2.44772 13.0191 2 12.4668 2C11.9145 2 11.4668 2.44772 11.4668 3V12.5858L8.1739 9.29289C7.78338 8.90237 7.15021 8.90237 6.75969 9.29289C6.36917 9.68342 6.36917 10.3166 6.75969 10.7071L11.7597 15.7071C12.1502 16.0976 12.7834 16.0976 13.1739 15.7071L18.1739 10.7071C18.5644 10.3166 18.5644 9.68342 18.1739 9.29289C17.7834 8.90237 17.1502 8.90237 16.7597 9.29289L13.4668 12.5858V3Z" fill="#4A4A4A"/>
<path d="M3.4668 14C4.01908 14 4.4668 14.4477 4.4668 15V16.2C4.4668 17.0566 4.46758 17.6389 4.50435 18.089C4.54017 18.5274 4.6051 18.7516 4.68479 18.908C4.87653 19.2843 5.18249 19.5903 5.55882 19.782C5.71522 19.8617 5.93942 19.9266 6.37784 19.9624C6.82793 19.9992 7.41022 20 8.2668 20H16.6668C17.5234 20 18.1057 19.9992 18.5558 19.9624C18.9942 19.9266 19.2184 19.8617 19.3748 19.782C19.7511 19.5903 20.0571 19.2843 20.2488 18.908C20.3285 18.7516 20.3934 18.5274 20.4292 18.089C20.466 17.6389 20.4668 17.0566 20.4668 16.2V15C20.4668 14.4477 20.9145 14 21.4668 14C22.0191 14 22.4668 14.4477 22.4668 15V16.2413C22.4668 17.0463 22.4668 17.7106 22.4226 18.2518C22.3767 18.8139 22.2781 19.3306 22.0308 19.816C21.6473 20.5686 21.0354 21.1805 20.2828 21.564C19.7974 21.8113 19.2807 21.9099 18.7186 21.9558C18.1774 22 17.5131 22 16.7081 22H8.2255C7.42053 22 6.75617 22 6.21497 21.9558C5.65287 21.9099 5.13617 21.8113 4.65084 21.564C3.89819 21.1805 3.28627 20.5686 2.90277 19.816C2.65548 19.3306 2.55692 18.8139 2.51099 18.2518C2.46677 17.7106 2.46678 17.0463 2.4668 16.2413V15C2.4668 14.4477 2.91451 14 3.4668 14Z" fill="#4A4A4A"/>
</svg>
