<svg width="25" height="25" viewBox="0 0 25 25" fill="none" xmlns="http://www.w3.org/2000/svg">
<path d="M3.26368 3.67334C3.26448 3.41848 3.36211 3.16386 3.55657 2.96941C3.55657 2.96941 3.51261 3.00748 3.60296 2.92534C3.62293 2.90719 3.64745 2.88578 3.67679 2.86161C3.7355 2.81326 3.81329 2.75408 3.9121 2.68821C4.11007 2.55623 4.39023 2.39886 4.76728 2.24804C5.52316 1.94569 6.65095 1.67651 8.26367 1.67651C9.95712 1.67651 11.3604 2.238 12.5794 2.72575L12.6351 2.74804C13.9032 3.25528 14.983 3.67651 16.2637 3.67651C17.651 3.67651 18.5232 3.44569 19.0173 3.24804C19.2652 3.14886 19.4226 3.05623 19.5058 3.00071C19.5472 2.97315 19.5709 2.95432 19.5789 2.94777C19.9708 2.57902 20.5876 2.58623 20.9708 2.96941C21.166 3.16467 21.2637 3.42059 21.2637 3.67651V15.6755C21.2639 15.9318 21.1663 16.1881 20.9708 16.3836L20.9697 16.3847C20.9319 16.4223 20.8918 16.4575 20.8506 16.4914C20.7918 16.5398 20.7141 16.5989 20.6152 16.6648C20.4173 16.7968 20.1371 16.9542 19.7601 17.105C19.0042 17.4073 17.8764 17.6765 16.2637 17.6765C14.5702 17.6765 13.167 17.115 11.948 16.6273L11.8923 16.605C10.6242 16.0978 9.54437 15.6765 8.26367 15.6765C6.87639 15.6765 6.00419 15.9073 5.51006 16.105C5.4149 16.1431 5.33308 16.1802 5.26367 16.2146L5.26367 22.6765C5.26367 23.2288 4.81596 23.6765 4.26367 23.6765C3.71139 23.6765 3.26367 23.2288 3.26367 22.6765L3.26367 15.6768C3.26367 15.6767 3.26367 15.6768 3.26367 15.6768L3.26367 3.67651C3.26367 3.67551 3.26367 3.67434 3.26368 3.67334Z" fill="#D8A800"/>
</svg>
