<svg width="244" height="244" viewBox="0 0 244 244" fill="none" xmlns="http://www.w3.org/2000/svg">
<path d="M30.8751 30.8428C30.8832 28.2623 31.8717 25.6843 33.8405 23.7154C33.8405 23.7154 33.3955 24.101 34.3103 23.2693C34.5125 23.0855 34.7608 22.8687 35.0578 22.624C35.6523 22.1345 36.4399 21.5353 37.4403 20.8684C39.4448 19.532 42.2814 17.9386 46.099 16.4116C53.7523 13.3503 65.1712 10.6249 81.5 10.6249C98.6462 10.6249 112.854 16.3099 125.196 21.2484L125.76 21.4741C138.6 26.6099 149.533 30.8749 162.5 30.8749C176.546 30.8749 185.377 28.5378 190.38 26.5366C192.891 25.5324 194.484 24.5945 195.327 24.0324C195.746 23.7533 195.986 23.5627 196.066 23.4964C200.035 19.7628 206.28 19.8358 210.159 23.7154C212.137 25.6925 213.125 28.2837 213.125 30.8749V152.365C213.128 154.96 212.139 157.555 210.159 159.534L210.149 159.545C209.766 159.926 209.359 160.282 208.942 160.626C208.348 161.115 207.56 161.715 206.56 162.381C204.555 163.718 201.719 165.311 197.901 166.838C190.248 169.9 178.829 172.625 162.5 172.625C145.354 172.625 131.146 166.94 118.804 162.001L118.24 161.776C105.4 156.64 94.467 152.375 81.5 152.375C67.4538 152.375 58.6227 154.712 53.6197 156.713C52.6562 157.099 51.8278 157.474 51.125 157.823L51.125 223.25C51.125 228.842 46.5919 233.375 41 233.375C35.4081 233.375 30.875 228.842 30.875 223.25L30.875 152.377C30.875 152.378 30.875 152.377 30.875 152.377L30.875 30.8749C30.875 30.8648 30.875 30.8529 30.8751 30.8428Z" fill="#D8A800"/>
</svg>
