<svg width="244" height="244" viewBox="0 0 244 244" fill="none" xmlns="http://www.w3.org/2000/svg">
<path d="M223.018 122C223.018 177.787 177.787 223.018 122 223.018C66.2131 223.018 20.9824 177.787 20.9824 122C20.9824 66.2129 66.2131 20.9823 122 20.9823C177.787 20.9823 223.018 66.2129 223.018 122Z" fill="url(#paint0_linear_223_2680)"/>
<path opacity="0.05" d="M163.277 82.4616L111.9 133.839L85.7765 107.716C81.8317 103.771 75.4373 103.771 71.4926 107.716L64.3506 114.858C60.4059 118.803 60.4059 125.197 64.3506 129.142L104.758 169.549C108.702 173.494 115.097 173.494 119.042 169.549L184.703 103.887C188.648 99.9427 188.648 93.5483 184.703 89.6036L177.561 82.4616C173.616 78.5169 167.222 78.5169 163.277 82.4616Z" fill="black"/>
<path opacity="0.07" d="M106.54 167.766L66.1325 127.359C63.1726 124.399 63.1726 119.601 66.1325 116.646L73.2744 109.504C76.2342 106.544 81.0326 106.544 83.9873 109.504L111.898 137.41L165.059 84.2496C168.019 81.2898 172.817 81.2898 175.772 84.2496L182.914 91.3916C185.874 94.3514 185.874 99.1497 182.914 102.104L117.252 167.766C114.298 170.721 109.499 170.721 106.54 167.766Z" fill="black"/>
<path d="M108.326 165.978L67.9192 125.571C65.9443 123.596 65.9443 120.399 67.9192 118.429L75.0611 111.287C77.036 109.312 80.2332 109.312 82.2031 111.287L111.897 140.981L166.846 86.0326C168.821 84.0577 172.018 84.0577 173.988 86.0326L181.13 93.1745C183.105 95.1494 183.105 98.3466 181.13 100.316L115.468 165.978C113.498 167.953 110.296 167.953 108.326 165.978Z" fill="white"/>
<defs>
<linearGradient id="paint0_linear_223_2680" x1="50.5705" y1="50.5703" x2="193.43" y2="193.429" gradientUnits="userSpaceOnUse">
<stop stop-color="#21AD64"/>
<stop offset="1" stop-color="#088242"/>
</linearGradient>
</defs>
</svg>
