<svg width="25" height="26" viewBox="0 0 25 26" fill="none" xmlns="http://www.w3.org/2000/svg">
<path fill-rule="evenodd" clip-rule="evenodd" d="M5.61829 8.86497C5.61829 4.93184 8.80672 1.74341 12.7399 1.74341C16.673 1.74341 19.8614 4.93184 19.8614 8.86497C19.8614 11.3492 18.4688 13.1259 17.0981 14.5535C16.7669 14.8985 16.4256 15.2341 16.0986 15.5557L16.0553 15.5983C15.7111 15.9368 15.3835 16.26 15.0754 16.5847C14.4551 17.2384 13.9642 17.8475 13.6498 18.4762C13.4775 18.8209 13.1252 19.0386 12.7399 19.0386C12.3545 19.0386 12.0022 18.8209 11.8299 18.4762C11.5155 17.8475 11.0246 17.2384 10.4043 16.5847C10.0962 16.26 9.76861 15.9368 9.42443 15.5983L9.38109 15.5557C9.05407 15.2341 8.71282 14.8985 8.38161 14.5535C7.01093 13.1259 5.61829 11.3492 5.61829 8.86497ZM14.7746 8.86497C14.7746 9.98872 13.8636 10.8997 12.7399 10.8997C11.6161 10.8997 10.7051 9.98872 10.7051 8.86497C10.7051 7.74122 11.6161 6.83024 12.7399 6.83024C13.8636 6.83024 14.7746 7.74122 14.7746 8.86497Z" fill="white"/>
<path d="M6.02892 16.1913C6.54299 15.9646 6.77589 15.364 6.54911 14.8499C6.32233 14.3358 5.72174 14.1029 5.20767 14.3297C4.18735 14.7798 3.29785 15.3446 2.64956 16.0246C1.9963 16.7098 1.54883 17.5584 1.54883 18.53C1.54883 20.4439 3.22374 21.8378 5.1285 22.695C7.12875 23.5951 9.82068 24.1255 12.7399 24.1255C15.659 24.1255 18.351 23.5951 20.3512 22.695C22.256 21.8378 23.9309 20.4439 23.9309 18.53C23.9309 17.5584 23.4834 16.7098 22.8301 16.0246C22.1819 15.3446 21.2924 14.7798 20.272 14.3297C19.758 14.1029 19.1574 14.3358 18.9306 14.8499C18.7038 15.364 18.9367 15.9646 19.4508 16.1913C20.314 16.5721 20.9505 17.0018 21.3574 17.4286C21.7593 17.8502 21.8961 18.2208 21.8961 18.53C21.8961 19.1445 21.2936 20.0396 19.5162 20.8395C17.8343 21.5963 15.4394 22.0908 12.7399 22.0908C10.0403 22.0908 7.64537 21.5963 5.96348 20.8395C4.1861 20.0396 3.58356 19.1445 3.58356 18.53C3.58356 18.2208 3.72038 17.8502 4.12229 17.4286C4.52918 17.0018 5.16572 16.5721 6.02892 16.1913Z" fill="white"/>
</svg>
