<svg width="24" height="25" viewBox="0 0 24 25" fill="none" xmlns="http://www.w3.org/2000/svg">
<path fill-rule="evenodd" clip-rule="evenodd" d="M12 2.5C8.68629 2.5 6 5.18629 6 8.5V10.6503C5.71739 10.7123 5.44614 10.8024 5.18404 10.936C4.43139 11.3195 3.81947 11.9314 3.43598 12.684C3.18868 13.1694 3.09012 13.6861 3.04419 14.2482C2.99998 14.7894 2.99999 15.4537 3 16.2587V16.7413C2.99999 17.5463 2.99998 18.2106 3.04419 18.7518C3.09012 19.3139 3.18868 19.8306 3.43598 20.316C3.81947 21.0686 4.43139 21.6805 5.18404 22.064C5.66937 22.3113 6.18608 22.4099 6.74818 22.4558C7.28938 22.5 7.95374 22.5 8.75873 22.5H15.2413C16.0463 22.5 16.7106 22.5 17.2518 22.4558C17.8139 22.4099 18.3306 22.3113 18.816 22.064C19.5686 21.6805 20.1805 21.0686 20.564 20.316C20.8113 19.8306 20.9099 19.3139 20.9558 18.7518C21 18.2106 21 17.5463 21 16.7413V16.2587C21 15.4537 21 14.7894 20.9558 14.2482C20.9099 13.6861 20.8113 13.1694 20.564 12.684C20.1805 11.9314 19.5686 11.3195 18.816 10.936C18.5539 10.8024 18.2826 10.7123 18 10.6503V8.5C18 5.18629 15.3137 2.5 12 2.5ZM16 10.5016V8.5C16 6.29086 14.2091 4.5 12 4.5C9.79086 4.5 8 6.29086 8 8.5V10.5016C8.23771 10.5 8.49039 10.5 8.75869 10.5H15.2413C15.5096 10.5 15.7623 10.5 16 10.5016Z" fill="#667479"/>
</svg>
