<svg xmlns="http://www.w3.org/2000/svg" viewBox="0 0 500 500"><g id="freepik--background-complete--inject-68"><path d="M205.63,68,110.44,191.67l256-63.64L223.85,63.43A15.09,15.09,0,0,0,205.63,68Z" style="fill:#ebebeb"></path><path d="M109.09,192.55,205.21,67.69A15.55,15.55,0,0,1,224.07,63l144,65.23Zm108.5-130a14.49,14.49,0,0,0-11.54,5.74h0L111.78,190.8l253.06-62.91-141.2-64A14.6,14.6,0,0,0,217.59,62.6Z" style="fill:#e0e0e0"></path><path d="M125.12,157.47H389.84a0,0,0,0,1,0,0V300.94a10.71,10.71,0,0,1-10.71,10.71H135.83a10.71,10.71,0,0,1-10.71-10.71V157.47a0,0,0,0,1,0,0Z" transform="translate(-48.98 69.04) rotate(-13.96)" style="fill:#f0f0f0"></path><path d="M351.52,135.44l-89,90.93L128,196.09l-15.39-71.35a14.4,14.4,0,0,1,10.55-17.22l194.6-48.37a14.38,14.38,0,0,1,17.44,10.5Z" style="fill:#fff"></path><path d="M250.3,219.22,144.61,329.66h0a11.78,11.78,0,0,0,14.28,8.59L393.19,280a11.78,11.78,0,0,0,8.59-14.27l-.22-.88L263.36,216.1A12.36,12.36,0,0,0,250.3,219.22Z" style="fill:#e0e0e0"></path><rect x="140.21" y="127.42" width="78.45" height="8.01" transform="translate(-26.42 47.19) rotate(-13.97)" style="fill:#e0e0e0"></rect><rect x="143.82" y="135.57" width="174.06" height="9.05" transform="translate(-26.99 59.86) rotate(-13.97)" style="fill:#e0e0e0"></rect><rect x="149.16" y="157.03" width="174.06" height="9.05" transform="translate(-32.01 61.78) rotate(-13.97)" style="fill:#e0e0e0"></rect><polygon points="323.11 164.57 317.82 169.86 176.02 206.93 157.49 202.6 156.79 200.59 325.16 158.71 325.89 161.62 323.11 164.57" style="fill:#e0e0e0"></polygon><polygon points="286.84 201.52 222.96 217.4 203.43 212.94 298.9 189.19 286.84 201.52" style="fill:#e0e0e0"></polygon><path d="M246.44,223.24s-.07.11-.24.3l-.76.83-2.94,3.15-10.89,11.53c-9.22,9.71-22,23.13-36.15,37.84s-27.15,27.91-36.63,37.37c-4.74,4.73-8.6,8.55-11.28,11.16l-3.09,3-.82.77a1.49,1.49,0,0,1-.29.25,2,2,0,0,1,.25-.29l.78-.81,3-3.07L158.55,314c9.41-9.53,22.34-22.76,36.52-37.48s27-28,36.25-37.73l11-11.41,3-3.08.8-.79C246.34,223.32,246.44,223.24,246.44,223.24Z" style="fill:#fafafa"></path><path d="M401.56,264.83c-.05.14-29.52-10.09-65.82-22.85s-65.69-23.22-65.64-23.36,29.52,10.08,65.82,22.84S401.61,264.68,401.56,264.83Z" style="fill:#fafafa"></path><path d="M355.75,131.06a1.67,1.67,0,0,1-.19.25L355,132l-2.37,2.63-8.83,9.59c-7.48,8.07-17.9,19.13-29.58,31.2S291.76,198.26,283.94,206l-9.31,9.12-2.56,2.45-.67.63c-.16.14-.24.21-.25.2a2,2,0,0,1,.21-.24l.63-.67,2.49-2.52,9.18-9.24c7.76-7.81,18.43-18.63,30.11-30.69S335.91,152,343.47,144l8.95-9.47,2.45-2.56.65-.66A1.38,1.38,0,0,1,355.75,131.06Z" style="fill:#fafafa"></path><path d="M246.44,223.24a1.56,1.56,0,0,1-.35-.06l-1-.24-4-1c-3.42-.86-8.39-2.07-14.54-3.51-12.29-2.91-29.34-6.66-48.18-10.74s-35.88-7.89-48.15-10.9c-6.14-1.5-11.1-2.76-14.51-3.68l-3.93-1.07-1-.29a1.38,1.38,0,0,1-.34-.12l.35.07,1,.23,4,1c3.43.86,8.4,2.06,14.55,3.51,12.29,2.91,29.33,6.66,48.18,10.74s35.88,7.89,48.15,10.9c6.14,1.5,11.1,2.75,14.51,3.68l3.92,1.07,1,.29Z" style="fill:#fafafa"></path><path d="M351.52,135.44s-.1-.33-.27-1l-.73-2.83c-.64-2.51-1.57-6.18-2.77-10.91L337.68,80.58q-.8-3.18-1.63-6.51c-.27-1.1-.55-2.23-.84-3.36-.14-.57-.28-1.14-.46-1.69a11.14,11.14,0,0,0-.6-1.64,14.11,14.11,0,0,0-11.25-8.31,13.9,13.9,0,0,0-3.81,0c-1.26.22-2.54.57-3.83.88l-7.85,2L291,66,218.09,84.2l-73,18.12-16.39,4.06-4,1a22.33,22.33,0,0,0-3.8,1.15,14.21,14.21,0,0,0-5.92,4.79,14.62,14.62,0,0,0-1.76,3.31,15.42,15.42,0,0,0-.81,3.59c-.29,2.45.39,4.81.87,7.14q1.5,7,2.87,13.41c3.65,17.09,6.6,30.91,8.64,40.48,1,4.78,1.79,8.48,2.33,11,.25,1.25.45,2.21.59,2.87s.18,1,.18,1-.09-.33-.24-1-.36-1.61-.64-2.85c-.56-2.53-1.37-6.23-2.42-11-2.09-9.56-5.1-23.38-8.82-40.44-.92-4.27-1.9-8.74-2.91-13.41-.48-2.3-1.18-4.74-.88-7.27a15,15,0,0,1,.82-3.71,15.37,15.37,0,0,1,1.81-3.42,14.05,14.05,0,0,1,2.69-2.87,13.61,13.61,0,0,1,3.41-2.08,22.13,22.13,0,0,1,3.87-1.18l4-1L145,101.83l73-18.16,73-18.12,16.39-4.06,7.85-1.94c1.29-.32,2.55-.66,3.87-.89a14.66,14.66,0,0,1,11,2.8,14.55,14.55,0,0,1,4.54,5.75,11.41,11.41,0,0,1,.62,1.69c.18.57.32,1.14.46,1.71.28,1.13.55,2.26.83,3.37.55,2.22,1.08,4.39,1.61,6.51l9.9,40.19c1.15,4.74,2.05,8.42,2.66,10.93.3,1.25.53,2.2.68,2.85S351.52,135.44,351.52,135.44Z" style="fill:#e0e0e0"></path></g><g id="freepik--mail-sent--inject-68"><polygon points="239.71 82.66 229.82 90.19 230.3 104.57 221.25 97.38 216.25 101.66 197.25 78.2 239.71 82.66" style="fill:#407BFF"></polygon><path d="M226.1,93.25c0,.44,4.2,11.32,4.2,11.32l-9.05-7.19Z" style="fill:#407BFF"></path><g style="opacity:0.30000000000000004"><path d="M226.1,93.25c0,.44,4.2,11.32,4.2,11.32l-9.05-7.19Z"></path></g><polygon points="197.25 78.2 226.1 93.25 230.3 104.57 229.82 90.19 197.25 78.2" style="fill:#407BFF"></polygon><polygon points="197.25 78.2 226.1 93.25 230.3 104.57 229.82 90.19 197.25 78.2" style="opacity:0.1"></polygon><path d="M277.25,272.22a12.91,12.91,0,0,1-5.13-1.25,12.91,12.91,0,0,1,5.13,1.25Z" style="fill:#263238"></path><path d="M285.43,274.22c0,.15-.75.1-1.59-.1s-1.5-.5-1.47-.65.75-.1,1.6.11S285.47,274.07,285.43,274.22Z" style="fill:#263238"></path><path d="M251.67,102.69a7.79,7.79,0,0,1-2.61-.41,7.31,7.31,0,0,1-2.52-.79,5.88,5.88,0,0,1,2.65.26A5.57,5.57,0,0,1,251.67,102.69Z" style="fill:#263238"></path><path d="M261.35,106.84a17.93,17.93,0,0,1-4.71-2.36,5.69,5.69,0,0,1,2.51.86C260.46,106,261.43,106.71,261.35,106.84Z" style="fill:#263238"></path><path d="M269.74,113.2c-.11.11-1-.64-2.12-1.58s-2-1.74-1.87-1.87A5.8,5.8,0,0,1,268,111.2C269.09,112.16,269.85,113.1,269.74,113.2Z" style="fill:#263238"></path><path d="M276.14,121.55c-.14.07-.8-.9-1.6-2.1a7.85,7.85,0,0,1-1.3-2.3c.11-.09.95.77,1.76,2A5.68,5.68,0,0,1,276.14,121.55Z" style="fill:#263238"></path><path d="M279.77,131.42a8,8,0,0,1-.88-2.49,7.56,7.56,0,0,1-.55-2.59,5.83,5.83,0,0,1,1.07,2.44A5.46,5.46,0,0,1,279.77,131.42Z" style="fill:#263238"></path><path d="M280.31,141.92a8.24,8.24,0,0,1-.11-2.64,7.54,7.54,0,0,1,.24-2.63,5.83,5.83,0,0,1,.31,2.64A5.71,5.71,0,0,1,280.31,141.92Z" style="fill:#263238"></path><path d="M277.58,152.06a8.14,8.14,0,0,1,.74-2.53,8.4,8.4,0,0,1,1-2.43,5.29,5.29,0,0,1-.53,2.61A5.43,5.43,0,0,1,277.58,152.06Z" style="fill:#263238"></path><path d="M271.47,160.6c-.1-.12.68-1,1.63-2.08s1.71-2,1.84-1.89a5.47,5.47,0,0,1-1.43,2.25C272.54,160,271.57,160.71,271.47,160.6Z" style="fill:#263238"></path><path d="M262.65,166.28a8.26,8.26,0,0,1,2.26-1.36,8.08,8.08,0,0,1,2.41-1.08,5.53,5.53,0,0,1-2.16,1.57A5.45,5.45,0,0,1,262.65,166.28Z" style="fill:#263238"></path><path d="M252.39,168.49A8,8,0,0,1,255,168a8.23,8.23,0,0,1,2.64-.17,5.47,5.47,0,0,1-2.57.71A5.34,5.34,0,0,1,252.39,168.49Z" style="fill:#263238"></path><path d="M242.09,166.54a28.56,28.56,0,0,1,5,1.53,5.19,5.19,0,0,1-2.64-.36A5.09,5.09,0,0,1,242.09,166.54Z" style="fill:#263238"></path><path d="M234.79,159.3c.15-.05.61,1,1.43,2.18s1.61,2,1.5,2.15-1.09-.6-1.95-1.83A4,4,0,0,1,234.79,159.3Z" style="fill:#263238"></path><path d="M239.23,151.11c0,.16-1.09.51-2.23,1.32s-1.75,1.82-1.89,1.74.3-1.28,1.57-2.18A3.66,3.66,0,0,1,239.23,151.11Z" style="fill:#263238"></path><path d="M248.27,154.86c-.14.08-.78-.9-1.82-1.86s-2.1-1.44-2-1.59a3.65,3.65,0,0,1,2.42,1.19A3.88,3.88,0,0,1,248.27,154.86Z" style="fill:#263238"></path><path d="M248.61,165.07a12.67,12.67,0,0,1,.49-2.57,12.85,12.85,0,0,1,.49-2.58,4.56,4.56,0,0,1,0,2.68A4.47,4.47,0,0,1,248.61,165.07Z" style="fill:#263238"></path><path d="M241.76,172.92c-.09-.13.82-.88,1.91-1.81s2-1.73,2.07-1.63-.58,1.08-1.71,2S241.84,173.05,241.76,172.92Z" style="fill:#263238"></path><path d="M232.41,177.78a6.64,6.64,0,0,1,2.28-1.35,6.47,6.47,0,0,1,2.51-.85,12.76,12.76,0,0,1-4.79,2.2Z" style="fill:#263238"></path><path d="M223,182.56c-.08-.13.87-.84,2.13-1.6a6,6,0,0,1,2.46-1c.08.15-.94.76-2.19,1.48A6.46,6.46,0,0,1,223,182.56Z" style="fill:#263238"></path><path d="M215,189.44c-.11-.1.58-1.08,1.63-2.11a5.87,5.87,0,0,1,2.13-1.59c.1.12-.71,1-1.74,2S215.16,189.54,215,189.44Z" style="fill:#263238"></path><path d="M209,198.06a5.82,5.82,0,0,1,1.08-2.43c.77-1.25,1.56-2.15,1.68-2.06a7.42,7.42,0,0,1-1.21,2.35C209.79,197.15,209.14,198.13,209,198.06Z" style="fill:#263238"></path><path d="M205.16,207.86a5.61,5.61,0,0,1,.48-2.61,5.69,5.69,0,0,1,1.15-2.4,17.8,17.8,0,0,1-1.63,5Z" style="fill:#263238"></path><path d="M203.78,218.3a9.8,9.8,0,0,1,.36-5.26,7.69,7.69,0,0,1,0,2.64A7.57,7.57,0,0,1,203.78,218.3Z" style="fill:#263238"></path><path d="M205.16,228.73a6.43,6.43,0,0,1-.83-2.52,5.38,5.38,0,0,1-.22-2.65,8.33,8.33,0,0,1,.76,2.54A6.46,6.46,0,0,1,205.16,228.73Z" style="fill:#263238"></path><path d="M209.23,238.43c-.13.08-.84-.88-1.49-2.2a5.58,5.58,0,0,1-.85-2.52,7.62,7.62,0,0,1,1.34,2.28A7.54,7.54,0,0,1,209.23,238.43Z" style="fill:#263238"></path><path d="M215.55,246.86c-.1.1-1-.66-2-1.78a5.92,5.92,0,0,1-1.44-2.24c.13-.1.92.78,1.86,1.88S215.66,246.75,215.55,246.86Z" style="fill:#263238"></path><path d="M223.67,253.56a5.72,5.72,0,0,1-2.34-1.27c-1.18-.86-2-1.72-1.92-1.84a7.66,7.66,0,0,1,2.25,1.4C222.82,252.7,223.75,253.43,223.67,253.56Z" style="fill:#263238"></path><path d="M233.17,258.1a5.59,5.59,0,0,1-2.58-.65,5.45,5.45,0,0,1-2.31-1.32,8,8,0,0,1,2.51.81A8.36,8.36,0,0,1,233.17,258.1Z" style="fill:#263238"></path><path d="M238.46,259.45c0,.14-.09.26-.14.25s-.07-.14,0-.29.09-.26.14-.25S238.49,259.3,238.46,259.45Z" style="fill:#263238"></path><rect x="218.45" y="231.3" width="11.51" height="7.16" transform="translate(84.5 -58.24) rotate(18.18)" style="fill:#407BFF"></rect><g style="opacity:0.30000000000000004"><rect x="218.45" y="231.3" width="11.51" height="7.16" transform="translate(84.5 -58.24) rotate(18.18)"></rect></g><path d="M230.79,233.28a45.37,45.37,0,0,1-6.34,2.6l-.19.07-.12-.16-.19-.24a44.91,44.91,0,0,1-4.09-5.87,47.07,47.07,0,0,1,4.53,5.54l.18.24-.31-.09A42.57,42.57,0,0,1,230.79,233.28Z" style="fill:#407BFF"></path><g style="opacity:0.1"><path d="M230.79,233.28a45.37,45.37,0,0,1-6.34,2.6l-.19.07-.12-.16-.19-.24a44.91,44.91,0,0,1-4.09-5.87,47.07,47.07,0,0,1,4.53,5.54l.18.24-.31-.09A42.57,42.57,0,0,1,230.79,233.28Z"></path></g><path d="M223,233.85a8.22,8.22,0,0,1-2.57,1.57,8.79,8.79,0,0,1-2.82,1.07,8.5,8.5,0,0,1,2.58-1.57A8.87,8.87,0,0,1,223,233.85Z" style="fill:#407BFF"></path><g style="opacity:0.1"><path d="M223,233.85a8.22,8.22,0,0,1-2.57,1.57,8.79,8.79,0,0,1-2.82,1.07,8.5,8.5,0,0,1,2.58-1.57A8.87,8.87,0,0,1,223,233.85Z"></path></g><path d="M228.75,240.14a8.24,8.24,0,0,1-1.4-2.53c-.66-1.49-1.1-2.77-.9-2.75a8.36,8.36,0,0,1,1.41,2.53A7.78,7.78,0,0,1,228.75,240.14Z" style="fill:#407BFF"></path><g style="opacity:0.1"><path d="M228.75,240.14a8.24,8.24,0,0,1-1.4-2.53c-.66-1.49-1.1-2.77-.9-2.75a8.36,8.36,0,0,1,1.41,2.53A7.78,7.78,0,0,1,228.75,240.14Z"></path></g><rect x="243.64" y="254.85" width="29.6" height="18.42" transform="translate(95.32 -67.47) rotate(18.18)" style="fill:#407BFF"></rect><path d="M275.38,259.93a7.18,7.18,0,0,1-1.26.57l-3.5,1.37c-3,1.13-7.09,2.67-11.7,4.36l-.19.07-.12-.16-.47-.62c-3.06-4-5.82-7.73-7.79-10.42L248,251.91a8,8,0,0,1-.79-1.22,7.9,7.9,0,0,1,1,1.09l2.45,3.09c2.05,2.62,4.85,6.27,7.92,10.32l.47.61-.31-.09c4.6-1.68,8.75-3.16,11.75-4.2l3.56-1.21A7.38,7.38,0,0,1,275.38,259.93Z" style="fill:#407BFF"></path><g style="opacity:0.2"><path d="M275.38,259.93a7.18,7.18,0,0,1-1.26.57l-3.5,1.37c-3,1.13-7.09,2.67-11.7,4.36l-.19.07-.12-.16-.47-.62c-3.06-4-5.82-7.73-7.79-10.42L248,251.91a8,8,0,0,1-.79-1.22,7.9,7.9,0,0,1,1,1.09l2.45,3.09c2.05,2.62,4.85,6.27,7.92,10.32l.47.61-.31-.09c4.6-1.68,8.75-3.16,11.75-4.2l3.56-1.21A7.38,7.38,0,0,1,275.38,259.93Z"></path></g><path d="M255.38,261.42a55.72,55.72,0,0,1-6.82,3.63,56.22,56.22,0,0,1-7.05,3.14,52.78,52.78,0,0,1,6.81-3.64A52.67,52.67,0,0,1,255.38,261.42Z" style="fill:#407BFF"></path><g style="opacity:0.2"><path d="M255.38,261.42a55.72,55.72,0,0,1-6.82,3.63,56.22,56.22,0,0,1-7.05,3.14,52.78,52.78,0,0,1,6.81-3.64A52.67,52.67,0,0,1,255.38,261.42Z"></path></g><path d="M270.14,277.59a51,51,0,0,1-3.21-6.68,50.44,50.44,0,0,1-2.7-6.91,50.76,50.76,0,0,1,3.21,6.69A50.06,50.06,0,0,1,270.14,277.59Z" style="fill:#407BFF"></path><g style="opacity:0.2"><path d="M270.14,277.59a51,51,0,0,1-3.21-6.68,50.44,50.44,0,0,1-2.7-6.91,50.76,50.76,0,0,1,3.21,6.69A50.06,50.06,0,0,1,270.14,277.59Z"></path></g><path d="M248.8,255a4.39,4.39,0,1,1,.94-6.14A4.39,4.39,0,0,1,248.8,255Z" style="fill:#263238"></path><path d="M249,250.65a20.07,20.07,0,0,1-2.95,1.82l-.7.39-.13.07-.07-.12a14.19,14.19,0,0,1-1.2-2.37,13.19,13.19,0,0,1,1.45,2.23l-.19-.06.7-.4A19.86,19.86,0,0,1,249,250.65Z" style="fill:#fff"></path><rect x="240.69" y="233.68" width="15.51" height="9.65" transform="translate(86.84 -65.62) rotate(18.18)" style="fill:#407BFF"></rect><g style="opacity:0.2"><rect x="240.69" y="233.68" width="15.51" height="9.65" transform="translate(86.84 -65.62) rotate(18.18)"></rect></g><path d="M257.31,236.34a3.34,3.34,0,0,1-.65.3l-1.84.72c-1.55.59-3.71,1.4-6.13,2.28l-.1,0-.06-.09-.24-.32c-1.61-2.12-3-4.05-4.09-5.46L243,232.14a4.4,4.4,0,0,1-.41-.64,3.78,3.78,0,0,1,.5.57l1.29,1.62c1.07,1.37,2.54,3.28,4.14,5.4l.25.33-.16,0c2.41-.88,4.58-1.66,6.16-2.2l1.86-.63A3.22,3.22,0,0,1,257.31,236.34Z" style="fill:#407BFF"></path><g style="opacity:0.2"><path d="M257.31,236.34a3.34,3.34,0,0,1-.65.3l-1.84.72c-1.55.59-3.71,1.4-6.13,2.28l-.1,0-.06-.09-.24-.32c-1.61-2.12-3-4.05-4.09-5.46L243,232.14a4.4,4.4,0,0,1-.41-.64,3.78,3.78,0,0,1,.5.57l1.29,1.62c1.07,1.37,2.54,3.28,4.14,5.4l.25.33-.16,0c2.41-.88,4.58-1.66,6.16-2.2l1.86-.63A3.22,3.22,0,0,1,257.31,236.34Z" style="fill:#407BFF"></path></g><path d="M246.84,237.12a30.14,30.14,0,0,1-3.57,1.9,29.76,29.76,0,0,1-3.7,1.65,27.53,27.53,0,0,1,3.57-1.91A28.07,28.07,0,0,1,246.84,237.12Z" style="fill:#407BFF"></path><g style="opacity:0.2"><path d="M246.84,237.12a30.14,30.14,0,0,1-3.57,1.9,29.76,29.76,0,0,1-3.7,1.65,27.53,27.53,0,0,1,3.57-1.91A28.07,28.07,0,0,1,246.84,237.12Z" style="fill:#407BFF"></path></g><path d="M254.57,245.59a26.4,26.4,0,0,1-1.68-3.5,28.28,28.28,0,0,1-1.42-3.62,50.9,50.9,0,0,1,3.1,7.12Z" style="fill:#407BFF"></path><g style="opacity:0.2"><path d="M254.57,245.59a26.4,26.4,0,0,1-1.68-3.5,28.28,28.28,0,0,1-1.42-3.62,50.9,50.9,0,0,1,3.1,7.12Z" style="fill:#407BFF"></path></g><path d="M139,121.57a20.88,20.88,0,1,1-15.1-25.38A20.89,20.89,0,0,1,139,121.57Z" style="fill:#263238"></path><path d="M126.47,105.11c.37.15-2,7.14-5.3,15.62-.49,1.23-1,2.41-1.41,3.57l-.25.63-.63-.24c-6.77-2.61-11.72-4.76-11.6-5.07s5.26,1.31,12.08,3.78l-.88.4c.44-1.16.9-2.35,1.37-3.58C123.14,111.73,126.11,105,126.47,105.11Z" style="fill:#fff"></path></g></svg>