<svg width="24" height="25" viewBox="0 0 24 25" fill="none" xmlns="http://www.w3.org/2000/svg">
<path d="M2.13352 8.68144C1.83359 8.4672 1.68363 8.36008 1.55288 8.34617C1.35735 8.32537 1.16139 8.42622 1.06467 8.59741C0.999992 8.71189 0.999995 8.89416 1 9.25869V15.7413C0.999988 16.5463 0.999978 17.2106 1.04419 17.7518C1.09012 18.3139 1.18868 18.8306 1.43598 19.316C1.81947 20.0686 2.43139 20.6805 3.18404 21.064C3.66937 21.3113 4.18608 21.4099 4.74818 21.4558C5.28937 21.5 5.95372 21.5 6.75868 21.5H17.2413C18.0463 21.5 18.7106 21.5 19.2518 21.4558C19.8139 21.4099 20.3306 21.3113 20.816 21.064C21.5686 20.6805 22.1805 20.0686 22.564 19.316C22.8113 18.8306 22.9099 18.3139 22.9558 17.7518C23 17.2106 23 16.5463 23 15.7413V9.25868C23 9.08001 23 8.99068 22.9836 8.92829C22.9096 8.64627 22.603 8.48561 22.329 8.58531C22.2684 8.60737 22.194 8.65886 22.0453 8.76184L14.3032 14.1219C13.7542 14.5032 13.2722 14.8379 12.7247 14.9706C12.2458 15.0867 11.7456 15.083 11.2685 14.9599C10.7229 14.8191 10.2459 14.4774 9.70265 14.0881L2.13352 8.68144Z" fill="#667479"/>
<path d="M22.1328 6.26872C22.3174 6.14092 22.4097 6.07702 22.4664 5.97424C22.5104 5.89443 22.5356 5.76804 22.5255 5.67745C22.5125 5.56079 22.463 5.48377 22.3638 5.32973C21.9839 4.73964 21.4373 4.25256 20.816 3.93598C20.3306 3.68868 19.8139 3.59012 19.2518 3.54419C18.7106 3.49998 18.0463 3.49999 17.2413 3.5H6.7587C5.95374 3.49999 5.28937 3.49998 4.74818 3.54419C4.18608 3.59012 3.66937 3.68868 3.18404 3.93598C2.62501 4.22082 2.1418 4.6326 1.77436 5.13335C1.65877 5.29089 1.60097 5.36966 1.58192 5.48921C1.56703 5.58269 1.58783 5.71257 1.63116 5.79674C1.68657 5.90436 1.78269 5.97302 1.97493 6.11033L10.75 12.3783C11.4773 12.8977 11.6316 12.9881 11.7681 13.0233C11.9272 13.0644 12.0939 13.0656 12.2535 13.0269C12.3906 12.9937 12.5463 12.9056 13.281 12.3969L22.1328 6.26872Z" fill="#667479"/>
</svg>
