<svg width="25" height="25" viewBox="0 0 25 25" fill="none" xmlns="http://www.w3.org/2000/svg">
<path d="M7.5 3.5C5.29086 3.5 3.5 5.29086 3.5 7.5V19.5C3.5 21.7091 5.29086 23.5 7.5 23.5H17.5C19.7091 23.5 21.5 21.7091 21.5 19.5V7.5C21.5 5.29086 19.7091 3.5 17.5 3.5V5.5C18.6046 5.5 19.5 6.39543 19.5 7.5V19.5C19.5 20.6046 18.6046 21.5 17.5 21.5H7.5C6.39543 21.5 5.5 20.6046 5.5 19.5V7.5C5.5 6.39543 6.39543 5.5 7.5 5.5V3.5Z" fill="#0D5CC7"/>
<path d="M8.5 11.5C9.05229 11.5 9.5 11.0523 9.5 10.5C9.5 9.94771 9.05229 9.5 8.5 9.5C7.94772 9.5 7.5 9.94771 7.5 10.5C7.5 11.0523 7.94772 11.5 8.5 11.5Z" fill="#0D5CC7"/>
<path d="M12.5 9.5C11.9477 9.5 11.5 9.94771 11.5 10.5C11.5 11.0523 11.9477 11.5 12.5 11.5H16.5C17.0523 11.5 17.5 11.0523 17.5 10.5C17.5 9.94771 17.0523 9.5 16.5 9.5H12.5Z" fill="#0D5CC7"/>
<path d="M12.5 13.5C11.9477 13.5 11.5 13.9477 11.5 14.5C11.5 15.0523 11.9477 15.5 12.5 15.5H16.5C17.0523 15.5 17.5 15.0523 17.5 14.5C17.5 13.9477 17.0523 13.5 16.5 13.5H12.5Z" fill="#0D5CC7"/>
<path d="M11.5 18.5C11.5 17.9477 11.9477 17.5 12.5 17.5H14.5C15.0523 17.5 15.5 17.9477 15.5 18.5C15.5 19.0523 15.0523 19.5 14.5 19.5H12.5C11.9477 19.5 11.5 19.0523 11.5 18.5Z" fill="#0D5CC7"/>
<path d="M9.5 14.5C9.5 15.0523 9.05229 15.5 8.5 15.5C7.94772 15.5 7.5 15.0523 7.5 14.5C7.5 13.9477 7.94772 13.5 8.5 13.5C9.05229 13.5 9.5 13.9477 9.5 14.5Z" fill="#0D5CC7"/>
<path d="M8.5 19.5C9.05229 19.5 9.5 19.0523 9.5 18.5C9.5 17.9477 9.05229 17.5 8.5 17.5C7.94772 17.5 7.5 17.9477 7.5 18.5C7.5 19.0523 7.94772 19.5 8.5 19.5Z" fill="#0D5CC7"/>
<path fill-rule="evenodd" clip-rule="evenodd" d="M15.5 3.5H9.5C8.94772 3.5 8.5 3.94772 8.5 4.5C8.5 5.05228 8.94772 5.5 9.5 5.5H15.5C16.0523 5.5 16.5 5.05228 16.5 4.5C16.5 3.94772 16.0523 3.5 15.5 3.5ZM9.5 1.5C7.84315 1.5 6.5 2.84315 6.5 4.5C6.5 6.15685 7.84315 7.5 9.5 7.5H15.5C17.1569 7.5 18.5 6.15685 18.5 4.5C18.5 2.84315 17.1569 1.5 15.5 1.5H9.5Z" fill="#0D5CC7"/>
</svg>
