<svg width="158" height="157" viewBox="0 0 158 157" fill="none" xmlns="http://www.w3.org/2000/svg">
<circle cx="73.978" cy="71.3134" r="71.103" fill="#E2F1FE"/>
<path d="M85.0247 54.5385L151.716 73.3592L144.76 147.415L64.9766 127.367L85.0247 54.5385Z" fill="#E2F1FE"/>
<path d="M151.307 72.95L81.3428 54.9475C77.9333 59.8573 69.1503 72.5408 61.2947 83.9969C53.439 95.453 39.7463 109.5 33.8818 115.092L115.711 139.232C117.211 138.413 123.567 132.44 136.987 115.092C150.407 97.7442 152.125 79.7691 151.307 72.95Z" fill="white" stroke="#096DD9" stroke-width="2.5"/>
<circle cx="87.4802" cy="74.1775" r="3.27317" fill="#B9DBFE"/>
<circle cx="77.6599" cy="91.3615" r="3.27317" fill="#B9DBFE"/>
<circle cx="67.8406" cy="106.909" r="3.27317" fill="#B9DBFE"/>
<rect x="86.0234" y="94.1863" width="39.2781" height="1.63659" rx="0.818293" transform="rotate(15.5 86.0234 94.1863)" fill="#B9DBFE"/>
<rect x="77.457" y="110.769" width="35.5522" height="1.63659" rx="0.818293" transform="rotate(15.5 77.457 110.769)" fill="#B9DBFE"/>
<rect x="96.8057" y="76.6696" width="39.2781" height="1.63659" rx="0.818293" transform="rotate(14.5 96.8057 76.6696)" fill="#B9DBFE"/>
</svg>
