<svg width="24" height="25" viewBox="0 0 24 25" fill="none" xmlns="http://www.w3.org/2000/svg">
<path fill-rule="evenodd" clip-rule="evenodd" d="M8.78609 15C10.9287 15.0005 13.0714 15.0005 15.2141 15C15.9407 14.9998 16.4359 14.9997 16.8683 15.076C18.9384 15.441 20.5591 17.0617 20.9241 19.1318C21.0004 19.5642 21.0003 20.0593 21.0001 20.786C21.0001 20.9444 21.0049 21.1038 20.9773 21.2605C20.8678 21.8815 20.3816 22.3677 19.7606 22.4772C19.6244 22.5012 19.4809 22.5005 19.4096 22.5001C14.4704 22.4736 9.52974 22.4736 4.59059 22.5001C4.51923 22.5005 4.37578 22.5012 4.2396 22.4772C3.61859 22.3677 3.13237 21.8815 3.02287 21.2605C2.99524 21.1038 3.0001 20.9444 3.00006 20.786C2.9999 20.0593 2.99979 19.5642 3.07604 19.1318C3.44105 17.0617 5.06178 15.441 7.13183 15.076C7.56425 14.9997 8.05941 14.9998 8.78609 15Z" fill="#667479"/>
<path fill-rule="evenodd" clip-rule="evenodd" d="M6.50008 8C6.50008 4.96243 8.96251 2.5 12.0001 2.5C15.0376 2.5 17.5001 4.96243 17.5001 8C17.5001 11.0376 15.0376 13.5 12.0001 13.5C8.96251 13.5 6.50008 11.0376 6.50008 8Z" fill="#667479"/>
</svg>
