<svg width="30" height="31" viewBox="0 0 30 31" fill="none" xmlns="http://www.w3.org/2000/svg">
<path fill-rule="evenodd" clip-rule="evenodd" d="M15.8292 10.6609L26.2106 7.65088L23.6267 18.1464L20.4032 15.0519L15.2036 20.4682C15.0271 20.6521 14.7832 20.756 14.5283 20.756C14.2734 20.756 14.0296 20.6521 13.8531 20.4682L10.0351 16.4912L4.41995 22.3404C4.06193 22.7133 3.46936 22.7254 3.09641 22.3674C2.72346 22.0093 2.71137 21.4168 3.0694 21.0438L9.35986 14.4913C9.53638 14.3074 9.78025 14.2034 10.0351 14.2034C10.29 14.2034 10.5339 14.3074 10.7104 14.4913L14.5283 18.4683L19.0527 13.7554L15.8292 10.6609Z" fill="#11A75C"/>
</svg>
