<svg width="105" height="105" viewBox="0 0 105 105" fill="none" xmlns="http://www.w3.org/2000/svg">
<rect width="105" height="105" rx="52.5" fill="white"/>
<path fill-rule="evenodd" clip-rule="evenodd" d="M32.2161 32.5719V80.2991H45.1733V66.1301H52.351C55.9865 66.1301 59.1636 65.4543 61.8825 64.1026C64.6169 62.751 66.7376 60.8245 68.2446 58.3231C69.7671 55.8218 70.5284 52.8622 70.5284 49.4442C70.5284 46.0573 69.7904 43.0976 68.3145 40.5652C66.8385 38.0328 64.7722 36.0675 62.1155 34.6692C59.4588 33.271 56.3594 32.5719 52.8171 32.5719H32.2161ZM45.1733 56.0626H40.0463V66.1301H45.1733V56.0626ZM45.1733 56.0626V42.919H49.7409C51.2635 42.919 52.5607 43.1831 53.6327 43.7113C54.7203 44.224 55.5515 44.9698 56.1263 45.9485C56.7167 46.9118 57.0119 48.077 57.0119 49.4442C57.0119 50.7958 56.7167 51.9688 56.1263 52.9631C55.5515 53.9575 54.7203 54.7265 53.6327 55.2703C52.5607 55.7985 51.2635 56.0626 49.7409 56.0626H45.1733Z" fill="#096DD9"/>
<path d="M40.0463 56.0626V66.1301H45.1733V56.0626H40.0463Z" fill="#096DD9"/>
<path d="M82.4262 29.439C80.4575 26.9662 77.5883 25.3752 74.4481 25.015C71.3079 24.6549 68.153 25.5549 65.6756 27.5178C63.6512 29.1219 62.2083 31.3452 61.5677 33.8474C61.5677 33.8474 61.4347 34.3683 61.4194 34.4483L58.662 48.3128L72.7978 48.7662C72.8724 48.7679 73.4097 48.7577 73.4097 48.7577L73.4129 48.7566C75.9939 48.6988 78.4849 47.7972 80.505 46.1897C82.9778 44.221 84.5688 41.3518 84.929 38.2116C85.2892 35.0714 84.3891 31.9165 82.4262 29.439ZM69.6954 39.55C69.1621 38.8786 68.8399 38.0641 68.7696 37.2095C68.6992 36.355 68.8838 35.4987 69.3001 34.7491C69.7164 33.9995 70.3456 33.3901 71.1081 32.9981C71.8707 32.6061 72.7324 32.449 73.5843 32.5467C74.4361 32.6444 75.2399 32.9925 75.8939 33.547C76.5479 34.1015 77.0228 34.8375 77.2586 35.6619C77.4943 36.4863 77.4803 37.3621 77.2182 38.1785C76.9562 38.995 76.458 39.7154 75.7865 40.2486C74.8856 40.9623 73.7384 41.2896 72.5965 41.1586C71.4547 41.0276 70.4113 40.4491 69.6954 39.55Z" fill="black"/>
</svg>
