<svg width="177" height="37" viewBox="0 0 177 37" fill="none" xmlns="http://www.w3.org/2000/svg">
<path d="M24.4813 29.0188V8.75839H31.5513V12.61H31.7624C32.1317 11.1854 32.7165 10.1434 33.5167 9.48386C34.3257 8.82434 35.271 8.49458 36.3526 8.49458C36.6692 8.49458 36.9813 8.52096 37.2891 8.57372C37.6057 8.61769 37.9091 8.68364 38.1992 8.77158V14.9842C37.8387 14.8611 37.3946 14.7688 36.867 14.7072C36.3394 14.6457 35.8865 14.6149 35.5084 14.6149C34.7961 14.6149 34.1542 14.7776 33.5826 15.1029C33.0198 15.4195 32.5758 15.868 32.2504 16.4484C31.925 17.0199 31.7624 17.6926 31.7624 18.4665V29.0188H24.4813Z" fill="#0575E6"/>
<path d="M68.2304 8.75839L71.185 15.037L74.2979 8.75839H81.5262L76.0918 18.8886L81.79 29.0188H74.6145L71.185 22.5819L67.861 29.0188H60.58L66.3309 18.8886L60.9493 8.75839H68.2304Z" fill="#0575E6"/>
<path d="M84.1148 29.0188V8.75839H91.3959V29.0188H84.1148ZM87.7554 6.64793C86.7705 6.64793 85.9263 6.32257 85.2228 5.67185C84.5193 5.02112 84.1676 4.2385 84.1676 3.32397C84.1676 2.40944 84.5193 1.62681 85.2228 0.976084C85.9263 0.325361 86.7705 0 87.7554 0C88.749 0 89.5932 0.325361 90.2879 0.976084C90.9914 1.62681 91.3431 2.40944 91.3431 3.32397C91.3431 4.2385 90.9914 5.02112 90.2879 5.67185C89.5932 6.32257 88.749 6.64793 87.7554 6.64793Z" fill="#0575E6"/>
<path d="M95.1057 29.0188V8.75839H102.017V12.61H102.228C102.651 11.3437 103.372 10.3412 104.392 9.60257C105.412 8.86391 106.625 8.49458 108.032 8.49458C109.457 8.49458 110.683 8.8727 111.712 9.62895C112.741 10.3764 113.361 11.3701 113.572 12.61H113.783C114.126 11.3701 114.856 10.3764 115.973 9.62895C117.09 8.8727 118.4 8.49458 119.904 8.49458C121.847 8.49458 123.421 9.11892 124.626 10.3676C125.839 11.6163 126.446 13.2783 126.446 15.3536V29.0188H119.165V17.2002C119.165 16.3121 118.941 15.6174 118.492 15.1161C118.044 14.6061 117.441 14.3511 116.685 14.3511C115.938 14.3511 115.344 14.6061 114.904 15.1161C114.474 15.6174 114.258 16.3121 114.258 17.2002V29.0188H107.294V17.2002C107.294 16.3121 107.069 15.6174 106.621 15.1161C106.172 14.6061 105.57 14.3511 104.814 14.3511C104.313 14.3511 103.882 14.4654 103.521 14.694C103.161 14.9227 102.879 15.2524 102.677 15.6833C102.483 16.1054 102.387 16.611 102.387 17.2002V29.0188H95.1057Z" fill="#0575E6"/>
<path d="M130.037 29.0188V8.75839H137.318V29.0188H130.037ZM133.678 6.64793C132.693 6.64793 131.848 6.32257 131.145 5.67185C130.442 5.02112 130.09 4.2385 130.09 3.32397C130.09 2.40944 130.442 1.62681 131.145 0.976084C131.848 0.325361 132.693 0 133.678 0C134.671 0 135.515 0.325361 136.21 0.976084C136.914 1.62681 137.265 2.40944 137.265 3.32397C137.265 4.2385 136.914 5.02112 136.21 5.67185C135.515 6.32257 134.671 6.64793 133.678 6.64793Z" fill="#0575E6"/>
<path d="M160.513 36.6164C159.678 36.6164 158.882 36.5504 158.126 36.4185C157.37 36.2954 156.706 36.124 156.134 35.9041L157.717 30.7335C158.315 30.9445 158.86 31.0808 159.353 31.1424C159.854 31.204 160.28 31.1688 160.632 31.0369C160.993 30.905 161.252 30.6544 161.41 30.285L161.569 29.9157L154.446 8.75839H162.043L165.315 22.7929H165.526L168.85 8.75839H176.5L169.113 30.7071C168.744 31.8239 168.208 32.8264 167.504 33.7145C166.809 34.6115 165.895 35.3193 164.761 35.8382C163.626 36.357 162.21 36.6164 160.513 36.6164Z" fill="#0575E6"/>
<path d="M49.8891 7.47523C47.4953 7.47806 45.2004 8.43023 43.5077 10.1229C41.8151 11.8155 40.8629 14.1104 40.8601 16.5042C40.8579 18.4603 41.4968 20.3632 42.679 21.9216C42.679 21.9216 42.9253 22.2458 42.9655 22.2926L49.8891 30.4581L56.8159 22.2885C56.852 22.245 57.0991 21.9216 57.0991 21.9216L57.0999 21.9191C58.2813 20.3613 58.9199 18.4594 58.918 16.5042C58.9152 14.1104 57.963 11.8155 56.2704 10.1229C54.5777 8.43023 52.2828 7.47806 49.8891 7.47523ZM49.8891 19.7875C49.2397 19.7875 48.6049 19.5949 48.065 19.2341C47.525 18.8734 47.1042 18.3606 46.8557 17.7607C46.6072 17.1607 46.5422 16.5006 46.6689 15.8637C46.7956 15.2268 47.1083 14.6418 47.5674 14.1826C48.0266 13.7234 48.6116 13.4107 49.2485 13.284C49.8854 13.1573 50.5456 13.2224 51.1455 13.4709C51.7454 13.7194 52.2582 14.1402 52.619 14.6801C52.9798 15.2201 53.1723 15.8548 53.1723 16.5042C53.1712 17.3747 52.825 18.2091 52.2095 18.8246C51.594 19.4401 50.7595 19.7864 49.8891 19.7875Z" fill="black"/>
<path fill-rule="evenodd" clip-rule="evenodd" d="M0 2.00493V29.0188H7.33383V20.999H11.3965C13.4542 20.999 15.2524 20.6165 16.7913 19.8515C18.339 19.0864 19.5393 17.996 20.3923 16.5803C21.254 15.1645 21.6849 13.4893 21.6849 11.5547C21.6849 9.63774 21.2672 7.96257 20.4318 6.52922C19.5965 5.09587 18.4269 3.98348 16.9232 3.19206C15.4195 2.40064 13.6652 2.00493 11.6603 2.00493H0ZM7.33383 15.3008H4.43196V20.999H7.33383V15.3008ZM7.33383 15.3008V7.86144H9.91914C10.7809 7.86144 11.5152 8.01093 12.1219 8.30992C12.7375 8.6001 13.2079 9.02219 13.5333 9.57619C13.8674 10.1214 14.0345 10.7809 14.0345 11.5547C14.0345 12.3198 13.8674 12.9837 13.5333 13.5465C13.2079 14.1093 12.7375 14.5446 12.1219 14.8523C11.5152 15.1513 10.7809 15.3008 9.91914 15.3008H7.33383Z" fill="#0575E6"/>
<path d="M4.43196 15.3008V20.999H7.33383V15.3008H4.43196Z" fill="#0575E6"/>
<path fill-rule="evenodd" clip-rule="evenodd" d="M153.11 14.0345V8.75839H149.628V3.90434H142.347V8.75839H139.762V14.0345H142.347V23.1886C142.329 24.6044 142.606 25.7827 143.178 26.7236C143.749 27.6645 144.602 28.3548 145.737 28.7945C146.871 29.2254 148.274 29.3969 149.945 29.3089C150.771 29.265 151.483 29.1726 152.081 29.0319C152.688 28.8913 153.154 28.7725 153.48 28.6758L152.424 23.558C152.284 23.5931 152.064 23.6371 151.765 23.6899C151.475 23.7426 151.22 23.769 151 23.769C150.683 23.769 150.424 23.725 150.222 23.6371C150.019 23.5404 149.87 23.3997 149.773 23.215C149.676 23.0215 149.628 22.7841 149.628 22.5027V14.0345H153.11ZM149.628 14.0345V13.2035V8.75839H142.347V14.0345H149.628Z" fill="#0575E6"/>
<path d="M149.628 14.0345V13.2035V8.75839H142.347V14.0345H149.628Z" fill="#0575E6"/>
</svg>
