<svg width="178" height="38" viewBox="0 0 178 38" fill="none" xmlns="http://www.w3.org/2000/svg">
<path d="M25.2313 29.7107V9.45028H32.3013V13.3019H32.5124C32.8817 11.8773 33.4665 10.8353 34.2667 10.1758C35.0757 9.51624 36.021 9.18648 37.1026 9.18648C37.4192 9.18648 37.7313 9.21286 38.0391 9.26562C38.3557 9.30959 38.6591 9.37554 38.9492 9.46347V15.6761C38.5887 15.553 38.1446 15.4607 37.617 15.3991C37.0894 15.3376 36.6365 15.3068 36.2584 15.3068C35.5461 15.3068 34.9042 15.4695 34.3326 15.7948C33.7698 16.1114 33.3258 16.5599 33.0004 17.1403C32.675 17.7118 32.5124 18.3845 32.5124 19.1584V29.7107H25.2313Z" fill="#EEEEEE"/>
<path d="M68.9804 9.45028L71.935 15.7289L75.0479 9.45028H82.2762L76.8418 19.5805L82.54 29.7107H75.3645L71.935 23.2738L68.611 29.7107H61.33L67.0809 19.5805L61.6993 9.45028H68.9804Z" fill="#EEEEEE"/>
<path d="M84.8648 29.7107V9.45028H92.1459V29.7107H84.8648ZM88.5054 7.33983C87.5205 7.33983 86.6763 7.01447 85.9728 6.36374C85.2693 5.71302 84.9176 4.93039 84.9176 4.01586C84.9176 3.10133 85.2693 2.3187 85.9728 1.66798C86.6763 1.01726 87.5205 0.691895 88.5054 0.691895C89.499 0.691895 90.3432 1.01726 91.0379 1.66798C91.7414 2.3187 92.0931 3.10133 92.0931 4.01586C92.0931 4.93039 91.7414 5.71302 91.0379 6.36374C90.3432 7.01447 89.499 7.33983 88.5054 7.33983Z" fill="#EEEEEE"/>
<path d="M95.8557 29.7107V9.45028H102.767V13.3019H102.978C103.401 12.0356 104.122 11.0331 105.142 10.2945C106.162 9.55581 107.375 9.18648 108.782 9.18648C110.207 9.18648 111.433 9.5646 112.462 10.3208C113.491 11.0683 114.111 12.062 114.322 13.3019H114.533C114.876 12.062 115.606 11.0683 116.723 10.3208C117.84 9.5646 119.15 9.18648 120.654 9.18648C122.597 9.18648 124.171 9.81082 125.376 11.0595C126.589 12.3082 127.196 13.9702 127.196 16.0455V29.7107H119.915V17.8921C119.915 17.004 119.691 16.3093 119.242 15.808C118.794 15.298 118.191 15.043 117.435 15.043C116.688 15.043 116.094 15.298 115.654 15.808C115.224 16.3093 115.008 17.004 115.008 17.8921V29.7107H108.044V17.8921C108.044 17.004 107.819 16.3093 107.371 15.808C106.922 15.298 106.32 15.043 105.564 15.043C105.063 15.043 104.632 15.1573 104.271 15.3859C103.911 15.6146 103.629 15.9443 103.427 16.3752C103.233 16.7973 103.137 17.3029 103.137 17.8921V29.7107H95.8557Z" fill="#EEEEEE"/>
<path d="M130.787 29.7107V9.45028H138.068V29.7107H130.787ZM134.428 7.33983C133.443 7.33983 132.598 7.01447 131.895 6.36374C131.192 5.71302 130.84 4.93039 130.84 4.01586C130.84 3.10133 131.192 2.3187 131.895 1.66798C132.598 1.01726 133.443 0.691895 134.428 0.691895C135.421 0.691895 136.265 1.01726 136.96 1.66798C137.664 2.3187 138.015 3.10133 138.015 4.01586C138.015 4.93039 137.664 5.71302 136.96 6.36374C136.265 7.01447 135.421 7.33983 134.428 7.33983Z" fill="#EEEEEE"/>
<path d="M161.263 37.3083C160.428 37.3083 159.632 37.2423 158.876 37.1104C158.12 36.9873 157.456 36.8159 156.884 36.596L158.467 31.4254C159.065 31.6364 159.61 31.7727 160.103 31.8343C160.604 31.8959 161.03 31.8607 161.382 31.7288C161.743 31.5969 162.002 31.3463 162.16 30.9769L162.319 30.6076L155.196 9.45028H162.793L166.065 23.4848H166.276L169.6 9.45028H177.25L169.863 31.399C169.494 32.5158 168.958 33.5183 168.254 34.4064C167.559 35.3034 166.645 36.0112 165.511 36.5301C164.376 37.0489 162.96 37.3083 161.263 37.3083Z" fill="#EEEEEE"/>
<path d="M50.6391 8.16713C48.2453 8.16995 45.9504 9.12212 44.2577 10.8148C42.5651 12.5074 41.6129 14.8023 41.6101 17.1961C41.6079 19.1522 42.2468 21.0551 43.429 22.6135C43.429 22.6135 43.6753 22.9377 43.7155 22.9845L50.6391 31.15L57.5659 22.9804C57.602 22.9369 57.8491 22.6135 57.8491 22.6135L57.8499 22.611C59.0313 21.0532 59.6699 19.1512 59.668 17.1961C59.6652 14.8023 58.713 12.5074 57.0204 10.8148C55.3277 9.12212 53.0328 8.16995 50.6391 8.16713ZM50.6391 20.4794C49.9897 20.4794 49.3549 20.2868 48.815 19.926C48.275 19.5653 47.8542 19.0525 47.6057 18.4526C47.3572 17.8526 47.2922 17.1925 47.4189 16.5556C47.5456 15.9187 47.8583 15.3337 48.3174 14.8745C48.7766 14.4153 49.3616 14.1026 49.9985 13.9759C50.6354 13.8492 51.2956 13.9143 51.8955 14.1628C52.4954 14.4113 53.0082 14.8321 53.369 15.372C53.7298 15.912 53.9223 16.5467 53.9223 17.1961C53.9212 18.0665 53.575 18.901 52.9595 19.5165C52.344 20.132 51.5095 20.4783 50.6391 20.4794Z" fill="black"/>
<path fill-rule="evenodd" clip-rule="evenodd" d="M0.75 2.69683V29.7107H8.08383V21.6909H12.1465C14.2042 21.6909 16.0024 21.3084 17.5413 20.5434C19.089 19.7783 20.2893 18.6879 21.1423 17.2722C22.004 15.8564 22.4349 14.1812 22.4349 12.2466C22.4349 10.3296 22.0172 8.65446 21.1818 7.22111C20.3465 5.78776 19.1769 4.67538 17.6732 3.88396C16.1695 3.09254 14.4152 2.69683 12.4103 2.69683H0.75ZM8.08383 15.9927H5.18196V21.6909H8.08383V15.9927ZM8.08383 15.9927V8.55334H10.6691C11.5309 8.55334 12.2652 8.70283 12.8719 9.00181C13.4875 9.292 13.9579 9.71409 14.2833 10.2681C14.6174 10.8133 14.7845 11.4728 14.7845 12.2466C14.7845 13.0117 14.6174 13.6756 14.2833 14.2384C13.9579 14.8012 13.4875 15.2364 12.8719 15.5442C12.2652 15.8432 11.5309 15.9927 10.6691 15.9927H8.08383Z" fill="#EEEEEE"/>
<path d="M5.18196 15.9927V21.6909H8.08383V15.9927H5.18196Z" fill="#EEEEEE"/>
<path fill-rule="evenodd" clip-rule="evenodd" d="M153.86 14.7264V9.45028H150.378V4.59624H143.097V9.45028H140.512V14.7264H143.097V23.8805C143.079 25.2963 143.356 26.4746 143.928 27.4155C144.499 28.3564 145.352 29.0467 146.487 29.4864C147.621 29.9173 149.024 30.0888 150.695 30.0008C151.521 29.9569 152.233 29.8645 152.831 29.7238C153.438 29.5831 153.904 29.4644 154.23 29.3677L153.174 24.2498C153.034 24.285 152.814 24.329 152.515 24.3818C152.225 24.4345 151.97 24.4609 151.75 24.4609C151.433 24.4609 151.174 24.4169 150.972 24.329C150.769 24.2323 150.62 24.0916 150.523 23.9069C150.426 23.7134 150.378 23.476 150.378 23.1946V14.7264H153.86ZM150.378 14.7264V13.8954V9.45028H143.097V14.7264H150.378Z" fill="#EEEEEE"/>
<path d="M150.378 14.7264V13.8954V9.45028H143.097V14.7264H150.378Z" fill="#EEEEEE"/>
</svg>
