<svg width="321" height="313" viewBox="0 0 321 313" fill="none" xmlns="http://www.w3.org/2000/svg">
<path d="M145.539 30.0628L34.9887 115.862L271.512 118.497L162.382 30.2151C160.005 28.2896 157.045 27.2263 153.987 27.1987C150.928 27.171 147.95 28.1806 145.539 30.0628Z" fill="#EBEBEB"/>
<path d="M33.6184 116.321L145.244 29.6989C147.739 27.7471 150.824 26.7027 153.991 26.7378C157.158 26.7728 160.219 27.8851 162.67 29.8917L272.881 119.039L33.6184 116.321ZM157.148 28.0367C155.208 27.5327 153.177 27.4846 151.215 27.8962C149.252 28.3078 147.412 29.168 145.837 30.4094L36.3481 115.41L270.155 118.014L162.095 30.5668C160.639 29.3933 158.949 28.5453 157.137 28.0801L157.148 28.0367Z" fill="#E0E0E0"/>
<path d="M34.9822 115.865L272.338 118.51L270.904 247.15C270.876 249.696 269.837 252.128 268.016 253.909C266.195 255.689 263.741 256.674 261.194 256.645L43.0442 254.214C40.4973 254.185 38.066 253.146 36.2852 251.326C34.5044 249.505 33.5199 247.051 33.5483 244.504L34.9822 115.865Z" fill="#F0F0F0"/>
<path d="M256.891 121.555L159.112 180.344L49.2273 123.666L51.9983 58.2751C52.0911 54.8889 53.5107 51.6749 55.9512 49.3257C58.3917 46.9766 61.6576 45.6806 65.0448 45.717L244.838 47.7254C246.533 47.7429 248.209 48.0946 249.768 48.7604C251.327 49.4261 252.74 50.3929 253.925 51.6053C255.11 52.8177 256.045 54.2519 256.675 55.8259C257.305 57.4 257.619 59.0828 257.598 60.7782L256.891 121.555Z" fill="white"/>
<path d="M150.124 171.377L33.453 243.324C33.4373 244.711 33.6953 246.088 34.2121 247.376C34.7289 248.664 35.4943 249.837 36.4648 250.829C37.4352 251.821 38.5916 252.612 39.8679 253.157C41.1441 253.702 42.5152 253.99 43.9028 254.005L260.378 256.412C263.179 256.443 265.877 255.361 267.879 253.403C269.882 251.445 271.025 248.772 271.057 245.971L271.065 245.158L162.162 171.622C160.392 170.425 158.315 169.766 156.179 169.722C154.043 169.679 151.941 170.254 150.124 171.377Z" fill="#E0E0E0"/>
<path d="M143.688 75.9604L73.3472 75.1886L73.2684 82.3706L143.609 83.1424L143.688 75.9604Z" fill="#E0E0E0"/>
<path d="M229.213 95.1094L73.1455 93.3971L73.0565 101.512L229.124 103.224L229.213 95.1094Z" fill="#E0E0E0"/>
<path d="M229 114.935L72.9324 113.223L72.8433 121.337L228.911 123.05L229 114.935Z" fill="#E0E0E0"/>
<path d="M225.655 140.411L219.869 143.806L88.4463 143.925L73.3457 135.98L73.1926 134.078L228.758 135.79L228.734 138.48L225.655 140.411Z" fill="#E0E0E0"/>
<path d="M185.831 164.277L126.811 163.619L110.873 155.335L199.083 156.303L185.831 164.277Z" fill="#E0E0E0"/>
<path d="M145.866 173.993C145.866 173.993 145.78 174.073 145.59 174.199L144.743 174.748L141.48 176.817L129.424 184.361C119.229 190.703 105.106 199.459 89.5034 209.026C73.9004 218.592 59.6365 227.108 49.2724 233.174C44.0903 236.207 39.8775 238.65 36.9621 240.309L33.6028 242.214L32.7172 242.697C32.6214 242.76 32.5179 242.811 32.4091 242.848C32.4968 242.774 32.5914 242.709 32.6915 242.653L33.5514 242.126L36.8485 240.14L49.0882 232.885C59.4074 226.743 73.6173 218.185 89.2486 208.616C104.88 199.048 119.006 190.422 129.231 184.069L141.355 176.655L144.654 174.66L145.527 174.155C145.761 174.04 145.866 173.993 145.866 173.993Z" fill="#FAFAFA"/>
<path d="M271.069 245.14C270.994 245.251 247.734 229.713 219.119 210.437C190.504 191.161 167.366 175.442 167.441 175.332C167.516 175.222 190.778 190.75 219.393 210.026C248.008 229.303 271.147 245.022 271.069 245.14Z" fill="#FAFAFA"/>
<path d="M261.551 118.71C261.483 118.775 261.409 118.833 261.33 118.884L260.688 119.356L258.037 121.103L248.208 127.429C239.893 132.741 228.352 139.983 215.489 147.817C202.626 155.651 190.837 162.56 182.302 167.509L172.163 173.318L169.387 174.866L168.664 175.261C168.493 175.346 168.408 175.389 168.402 175.378C168.476 175.318 168.555 175.265 168.638 175.217L169.336 174.778L172.066 173.154L182.12 167.211C190.619 162.188 202.323 155.211 215.184 147.385C228.045 139.56 239.603 132.397 247.971 127.163L257.877 120.969L260.582 119.301L261.295 118.875C261.373 118.81 261.459 118.754 261.551 118.71Z" fill="#FAFAFA"/>
<path d="M145.866 173.993C145.764 173.961 145.667 173.917 145.576 173.862L144.762 173.428L141.517 171.656C138.744 170.137 134.705 167.964 129.694 165.324C119.687 160.022 105.739 152.914 90.3134 145.116C74.8874 137.318 60.9623 130.16 50.9954 124.775C46.0065 122.086 41.9873 119.872 39.2363 118.303L36.0679 116.486L35.2657 116.008C35.1689 115.96 35.0788 115.899 34.9978 115.827L35.2857 115.967L36.1014 116.393L39.3464 118.165C42.1283 119.686 46.1698 121.851 51.1786 124.499C61.1854 129.801 75.1241 136.907 90.5588 144.707C105.994 152.508 119.91 159.663 129.877 165.048C134.866 167.737 138.887 169.943 141.636 171.52L144.796 173.335L145.598 173.812L145.866 173.993Z" fill="#FAFAFA"/>
<path d="M256.891 121.555C256.891 121.555 256.879 121.246 256.883 120.626L256.889 118.005C256.901 115.683 256.923 112.288 256.951 107.912L257.28 70.823C257.296 68.8629 257.315 66.8571 257.337 64.8057C257.351 63.7901 257.364 62.7463 257.367 61.7002C257.375 61.174 257.382 60.6477 257.35 60.1298C257.341 59.6071 257.291 59.0859 257.2 58.5711C256.847 56.4004 255.934 54.3592 254.552 52.6488C253.169 50.9384 251.365 49.618 249.316 48.8176C248.259 48.3802 247.147 48.0905 246.01 47.9566C244.867 47.8627 243.677 47.8771 242.488 47.8546L235.224 47.8159L220.069 47.6215L152.689 46.9362L85.2496 46.1611L70.1098 45.9799L66.4128 45.9436C65.2253 45.8842 64.0348 45.9308 62.8555 46.0827C60.5645 46.4388 58.4141 47.4133 56.636 48.9012C55.7745 49.6249 55.0098 50.4566 54.3607 51.3756C53.7407 52.289 53.2324 53.2734 52.8465 54.3077C52.0411 56.3681 52.0978 58.5696 51.9877 60.6999C51.8008 64.9754 51.6206 69.0704 51.4474 72.9849C50.7522 88.6394 50.1886 101.298 49.7959 110.064C49.5833 114.437 49.4326 117.826 49.3317 120.135C49.2661 121.276 49.2227 122.155 49.195 122.759C49.1673 123.363 49.1252 123.667 49.1252 123.667C49.1252 123.667 49.1217 123.361 49.1429 122.745C49.1642 122.13 49.1944 121.267 49.2317 120.128C49.3175 117.806 49.4509 114.412 49.6178 110.036C49.9649 101.268 50.4764 88.5954 51.1041 72.9511C51.2708 69.0379 51.4307 64.9377 51.6097 60.6571C51.713 58.5528 51.657 56.2773 52.4892 54.1498C52.8751 53.0768 53.396 52.0573 54.0392 51.1158C54.7095 50.1676 55.4969 49.3079 56.3827 48.5572C57.2838 47.793 58.2879 47.1593 59.3656 46.6748C60.4515 46.1633 61.607 45.8148 62.7946 45.6406C63.9958 45.4802 65.2092 45.4302 66.4195 45.4913L70.1164 45.5276L85.2822 45.7156L152.731 46.4559L220.171 47.231L235.311 47.4122L242.561 47.503C243.753 47.5168 244.923 47.5066 246.12 47.6053C247.858 47.7911 249.541 48.3216 251.071 49.1656C252.602 50.0097 253.948 51.1504 255.033 52.521C256.411 54.2682 257.32 56.339 257.673 58.5366C257.767 59.0672 257.819 59.6044 257.829 60.1432C257.856 60.6785 257.849 61.2047 257.841 61.731C257.829 62.7748 257.808 63.8164 257.8 64.8428C257.775 66.8935 257.745 68.8963 257.726 70.8556L257.233 107.967C257.16 112.34 257.109 115.737 257.071 118.053C257.049 119.205 257.034 120.082 257.017 120.68C257 121.278 256.891 121.555 256.891 121.555Z" fill="#E0E0E0"/>
<path d="M144.014 52.5708L135.146 59.3228L135.576 72.2172L127.461 65.77L122.978 69.6078L105.941 48.5716L144.014 52.5708Z" fill="#407BFF"/>
<path d="M131.81 62.0667C131.81 62.4612 135.576 72.2171 135.576 72.2171L127.461 65.77L131.81 62.0667Z" fill="#407BFF"/>
<g opacity="0.3">
<path d="M131.81 62.0667C131.81 62.4612 135.576 72.2171 135.576 72.2171L127.461 65.77L131.81 62.0667Z" fill="black"/>
</g>
<path d="M105.941 48.5716L131.81 62.0667L135.576 72.2172L135.146 59.3228L105.941 48.5716Z" fill="#407BFF"/>
<path opacity="0.1" d="M105.941 48.5716L131.81 62.0667L135.576 72.2172L135.146 59.3228L105.941 48.5716Z" fill="black"/>
<path d="M177.676 222.546C176.082 222.494 174.515 222.112 173.076 221.425C174.67 221.478 176.236 221.86 177.676 222.546Z" fill="#263238"/>
<path d="M185.011 224.34C185.011 224.474 184.338 224.429 183.585 224.25C182.832 224.071 182.24 223.802 182.267 223.667C182.294 223.533 182.939 223.578 183.701 223.766C184.464 223.954 185.046 224.205 185.011 224.34Z" fill="#263238"/>
<path d="M154.738 70.5314C153.943 70.543 153.152 70.4187 152.398 70.1637C151.608 70.0668 150.842 69.8267 150.138 69.4554C150.938 69.3504 151.751 69.4301 152.515 69.6885C153.313 69.7863 154.076 70.0755 154.738 70.5314Z" fill="#263238"/>
<path d="M163.418 74.2526C161.914 73.759 160.491 73.0459 159.195 72.1364C159.996 72.2125 160.767 72.4768 161.446 72.9076C162.62 73.4994 163.49 74.136 163.418 74.2526Z" fill="#263238"/>
<path d="M170.942 79.9555C170.843 80.0542 170.045 79.3817 169.041 78.5388C168.036 77.6959 167.247 76.9786 167.364 76.862C168.128 77.1321 168.819 77.5774 169.381 78.1622C170.359 79.023 171.04 79.8659 170.942 79.9555Z" fill="#263238"/>
<path d="M176.68 87.4429C176.555 87.5056 175.963 86.6358 175.246 85.5598C174.743 84.9431 174.349 84.2458 174.08 83.4974C174.178 83.4167 174.932 84.1879 175.658 85.2908C176.164 85.9173 176.514 86.6548 176.68 87.4429Z" fill="#263238"/>
<path d="M179.935 96.2931C179.55 95.5977 179.284 94.8432 179.146 94.0604C178.847 93.3213 178.68 92.5351 178.653 91.738C179.137 92.3834 179.466 93.1323 179.613 93.9259C179.914 94.6762 180.025 95.4895 179.935 96.2931Z" fill="#263238"/>
<path d="M180.419 105.708C180.259 104.93 180.226 104.13 180.321 103.341C180.253 102.548 180.326 101.75 180.536 100.983C180.81 101.74 180.905 102.55 180.814 103.35C180.87 104.156 180.735 104.964 180.419 105.708Z" fill="#263238"/>
<path d="M177.971 114.801C178.068 114.013 178.292 113.247 178.635 112.532C178.818 111.763 179.12 111.028 179.532 110.353C179.575 111.161 179.412 111.967 179.056 112.694C178.874 113.475 178.501 114.198 177.971 114.801Z" fill="#263238"/>
<path d="M172.493 122.458C172.403 122.351 173.103 121.562 173.954 120.593C174.806 119.625 175.488 118.8 175.604 118.899C175.35 119.667 174.909 120.36 174.322 120.916C173.452 121.92 172.583 122.557 172.493 122.458Z" fill="#263238"/>
<path d="M164.584 127.552C165.19 127.039 165.874 126.627 166.611 126.332C167.273 125.893 168.003 125.566 168.772 125.364C168.251 125.984 167.586 126.467 166.835 126.771C166.16 127.213 165.387 127.481 164.584 127.552Z" fill="#263238"/>
<path d="M155.384 129.533C156.134 129.257 156.925 129.109 157.724 129.094C158.5 128.916 159.3 128.864 160.092 128.941C159.388 129.34 158.596 129.559 157.787 129.578C156.995 129.768 156.168 129.752 155.384 129.533Z" fill="#263238"/>
<path d="M146.148 127.785C147.681 128.104 149.182 128.563 150.632 129.157C149.828 129.257 149.012 129.146 148.264 128.834C147.479 128.676 146.749 128.314 146.148 127.785Z" fill="#263238"/>
<path d="M139.602 121.293C139.737 121.248 140.149 122.189 140.885 123.247C141.62 124.306 142.328 125.041 142.23 125.175C142.131 125.31 141.252 124.637 140.481 123.534C139.939 122.911 139.628 122.119 139.602 121.293Z" fill="#263238"/>
<path d="M143.584 113.949C143.584 114.092 142.606 114.406 141.584 115.132C140.562 115.859 140.015 116.764 139.889 116.693C139.764 116.621 140.158 115.545 141.297 114.738C141.931 114.193 142.749 113.911 143.584 113.949Z" fill="#263238"/>
<path d="M151.69 117.311C151.564 117.383 150.99 116.504 150.058 115.644C149.125 114.783 148.175 114.352 148.264 114.218C149.097 114.284 149.874 114.665 150.434 115.285C151.078 115.792 151.523 116.509 151.69 117.311Z" fill="#263238"/>
<path d="M151.995 126.467C152.061 125.685 152.208 124.913 152.434 124.162C152.501 123.378 152.648 122.603 152.873 121.849C153.114 122.632 153.114 123.469 152.873 124.252C152.812 125.062 152.505 125.834 151.995 126.467Z" fill="#263238"/>
<path d="M145.852 133.506C145.771 133.389 146.587 132.716 147.565 131.883C148.542 131.049 149.358 130.331 149.421 130.421C149.484 130.511 148.901 131.389 147.888 132.214C146.874 133.039 145.924 133.622 145.852 133.506Z" fill="#263238"/>
<path d="M137.468 137.863C138.061 137.327 138.757 136.915 139.513 136.653C140.202 136.246 140.969 135.987 141.763 135.891C140.485 136.84 139.022 137.512 137.468 137.863Z" fill="#263238"/>
<path d="M129.031 142.15C128.959 142.033 129.811 141.396 130.941 140.715C131.6 140.255 132.353 139.949 133.146 139.818C133.218 139.953 132.303 140.5 131.183 141.145C130.542 141.625 129.81 141.967 129.031 142.15Z" fill="#263238"/>
<path d="M121.857 148.319C121.758 148.229 122.377 147.35 123.319 146.427C123.838 145.812 124.491 145.324 125.229 145.001C125.318 145.109 124.592 145.898 123.668 146.794C122.745 147.691 122 148.408 121.857 148.319Z" fill="#263238"/>
<path d="M116.477 156.048C116.627 155.257 116.959 154.511 117.445 153.869C118.136 152.748 118.844 151.941 118.952 152.022C118.719 152.784 118.352 153.497 117.867 154.129C117.185 155.232 116.602 156.111 116.477 156.048Z" fill="#263238"/>
<path d="M113.034 164.836C112.988 164.032 113.135 163.23 113.464 162.495C113.633 161.707 113.986 160.969 114.495 160.343C114.233 161.902 113.74 163.413 113.034 164.827V164.836Z" fill="#263238"/>
<path d="M111.796 174.197C111.471 172.625 111.583 170.994 112.119 169.481C112.256 170.264 112.256 171.065 112.119 171.848C112.15 172.644 112.041 173.439 111.796 174.197Z" fill="#263238"/>
<path d="M113.034 183.549C112.631 182.856 112.378 182.087 112.289 181.29C112.026 180.527 111.958 179.71 112.092 178.914C112.439 179.632 112.67 180.401 112.774 181.191C113.022 181.951 113.111 182.754 113.034 183.549Z" fill="#263238"/>
<path d="M116.683 192.247C116.567 192.319 115.93 191.458 115.347 190.275C114.915 189.594 114.653 188.819 114.585 188.015C115.102 188.621 115.508 189.313 115.787 190.059C116.212 190.73 116.515 191.471 116.683 192.247Z" fill="#263238"/>
<path d="M122.35 199.806C122.261 199.896 121.454 199.215 120.557 198.21C119.979 197.648 119.538 196.961 119.266 196.202C119.382 196.112 120.091 196.901 120.933 197.888C121.776 198.874 122.449 199.708 122.35 199.806Z" fill="#263238"/>
<path d="M129.631 205.814C128.852 205.605 128.133 205.215 127.533 204.675C126.475 203.904 125.74 203.133 125.811 203.026C126.552 203.324 127.235 203.748 127.829 204.281C128.869 205.043 129.703 205.698 129.631 205.814Z" fill="#263238"/>
<path d="M138.15 209.885C137.343 209.88 136.549 209.68 135.836 209.302C135.059 209.085 134.347 208.678 133.765 208.119C134.55 208.235 135.311 208.48 136.016 208.845C136.778 209.076 137.498 209.427 138.15 209.885Z" fill="#263238"/>
<path d="M142.893 211.096C142.893 211.221 142.813 211.329 142.768 211.32C142.723 211.311 142.705 211.194 142.768 211.06C142.83 210.925 142.848 210.827 142.893 210.836C142.938 210.845 142.92 210.961 142.893 211.096Z" fill="#263238"/>
<path d="M136.037 187.613L126.232 184.393L124.229 190.493L134.034 193.713L136.037 187.613Z" fill="#407BFF"/>
<g opacity="0.3">
<path d="M136.037 187.613L126.232 184.393L124.229 190.493L134.034 193.713L136.037 187.613Z" fill="black"/>
</g>
<path d="M136.016 187.629C134.182 188.549 132.282 189.328 130.331 189.961L130.16 190.024L130.053 189.88L129.882 189.665C128.522 188.011 127.295 186.251 126.215 184.401C127.693 185.952 129.051 187.612 130.277 189.369L130.438 189.584L130.16 189.503C132.058 188.722 134.017 188.096 136.016 187.629Z" fill="#407BFF"/>
<g opacity="0.1">
<path d="M136.016 187.629C134.182 188.549 132.282 189.328 130.331 189.961L130.16 190.024L130.053 189.88L129.882 189.665C128.522 188.011 127.295 186.251 126.215 184.401C127.693 185.952 129.051 187.612 130.277 189.369L130.438 189.584L130.16 189.503C132.058 188.722 134.017 188.096 136.016 187.629Z" fill="black"/>
</g>
<path d="M129.03 188.141C128.355 188.748 127.574 189.225 126.726 189.548C125.945 190.011 125.089 190.336 124.197 190.508C124.878 189.904 125.662 189.427 126.511 189.1C127.29 188.639 128.142 188.315 129.03 188.141Z" fill="#407BFF"/>
<g opacity="0.1">
<path d="M129.03 188.141C128.355 188.748 127.574 189.225 126.726 189.548C125.945 190.011 125.089 190.336 124.197 190.508C124.878 189.904 125.662 189.427 126.511 189.1C127.29 188.639 128.142 188.315 129.03 188.141Z" fill="black"/>
</g>
<path d="M134.186 193.781C133.637 193.104 133.212 192.336 132.931 191.512C132.339 190.176 131.945 189.028 132.124 189.046C132.674 189.723 133.102 190.491 133.388 191.315C133.806 192.08 134.077 192.916 134.186 193.781Z" fill="#407BFF"/>
<g opacity="0.1">
<path d="M134.186 193.781C133.637 193.104 133.212 192.336 132.931 191.512C132.339 190.176 131.945 189.028 132.124 189.046C132.674 189.723 133.102 190.491 133.388 191.315C133.806 192.08 134.077 192.916 134.186 193.781Z" fill="black"/>
</g>
<path d="M176.022 211.508L150.805 203.227L145.652 218.919L170.869 227.2L176.022 211.508Z" fill="#407BFF"/>
<path d="M175.999 211.526C175.64 211.732 175.261 211.904 174.869 212.037L171.731 213.266C169.041 214.279 165.373 215.66 161.239 217.175L161.069 217.238L160.961 217.094L160.54 216.539C157.796 212.952 155.321 209.607 153.555 207.195L151.448 204.335C151.179 203.992 150.942 203.626 150.739 203.241C151.068 203.538 151.368 203.865 151.636 204.218L153.833 206.989C155.671 209.338 158.182 212.611 160.935 216.243L161.356 216.79L161.078 216.709C165.203 215.202 168.924 213.875 171.614 212.943L174.806 211.858C175.193 211.71 175.592 211.599 175.999 211.526Z" fill="#407BFF"/>
<g opacity="0.2">
<path d="M175.999 211.526C175.64 211.732 175.261 211.904 174.869 212.037L171.731 213.266C169.041 214.279 165.373 215.66 161.239 217.175L161.069 217.238L160.961 217.094L160.54 216.539C157.796 212.952 155.321 209.607 153.555 207.195L151.448 204.335C151.179 203.992 150.942 203.626 150.739 203.241C151.068 203.538 151.368 203.865 151.636 204.218L153.833 206.989C155.671 209.338 158.182 212.611 160.935 216.243L161.356 216.79L161.078 216.709C165.203 215.202 168.924 213.875 171.614 212.943L174.806 211.858C175.193 211.71 175.592 211.599 175.999 211.526Z" fill="black"/>
</g>
<path d="M158.065 212.862C156.104 214.087 154.061 215.175 151.95 216.117C149.909 217.199 147.797 218.14 145.628 218.933C147.581 217.697 149.622 216.606 151.734 215.669C153.773 214.58 155.889 213.642 158.065 212.862Z" fill="#407BFF"/>
<g opacity="0.2">
<path d="M158.065 212.862C156.104 214.087 154.061 215.175 151.95 216.117C149.909 217.199 147.797 218.14 145.628 218.933C147.581 217.697 149.622 216.606 151.734 215.669C153.773 214.58 155.889 213.642 158.065 212.862Z" fill="black"/>
</g>
<path d="M171.3 227.361C170.197 225.437 169.235 223.435 168.422 221.372C167.464 219.368 166.655 217.298 166.001 215.176C167.105 217.102 168.067 219.107 168.879 221.174C169.838 223.174 170.647 225.242 171.3 227.361Z" fill="#407BFF"/>
<g opacity="0.2">
<path d="M171.3 227.361C170.197 225.437 169.235 223.435 168.422 221.372C167.464 219.368 166.655 217.298 166.001 215.176C167.105 217.102 168.067 219.107 168.879 221.174C169.838 223.174 170.647 225.242 171.3 227.361Z" fill="black"/>
</g>
<path d="M152.165 207.105C151.537 207.566 150.787 207.83 150.01 207.864C149.232 207.898 148.462 207.701 147.796 207.298C147.13 206.895 146.599 206.303 146.27 205.598C145.94 204.892 145.827 204.105 145.945 203.336C146.063 202.566 146.406 201.849 146.932 201.275C147.457 200.7 148.141 200.295 148.897 200.109C149.653 199.923 150.447 199.966 151.178 200.231C151.91 200.496 152.547 200.973 153.008 201.6C153.314 202.017 153.536 202.49 153.659 202.992C153.782 203.494 153.806 204.016 153.727 204.527C153.649 205.039 153.471 205.529 153.203 205.972C152.935 206.414 152.582 206.799 152.165 207.105Z" fill="#263238"/>
<path d="M152.344 203.205C151.511 203.824 150.626 204.37 149.699 204.837L149.071 205.187L148.955 205.249L148.892 205.142C148.468 204.469 148.107 203.757 147.816 203.017C148.316 203.638 148.751 204.307 149.116 205.016L148.946 204.962L149.573 204.604C150.455 204.058 151.382 203.59 152.344 203.205Z" fill="white"/>
<path d="M159.824 190.364L146.611 186.025L143.911 194.246L157.125 198.586L159.824 190.364Z" fill="#407BFF"/>
<g opacity="0.2">
<path d="M159.824 190.364L146.611 186.025L143.911 194.246L157.124 198.586L159.824 190.364Z" fill="black"/>
</g>
<path d="M159.796 190.373C159.612 190.484 159.416 190.574 159.213 190.642L157.563 191.288C156.173 191.817 154.236 192.543 152.066 193.332H151.977L151.923 193.252L151.708 192.965C150.264 191.064 149.017 189.333 148.04 188.069L146.964 186.607C146.825 186.427 146.702 186.235 146.596 186.033C146.763 186.188 146.913 186.359 147.045 186.544L148.202 187.997C149.161 189.226 150.479 190.938 151.914 192.839L152.138 193.135H151.994C154.155 192.346 156.101 191.647 157.518 191.162L159.186 190.597C159.38 190.5 159.585 190.425 159.796 190.373Z" fill="#407BFF"/>
<g opacity="0.2">
<path d="M159.796 190.373C159.612 190.484 159.416 190.574 159.213 190.642L157.563 191.288C156.173 191.817 154.236 192.543 152.066 193.332H151.977L151.923 193.252L151.708 192.965C150.264 191.064 149.017 189.333 148.04 188.069L146.964 186.607C146.825 186.427 146.702 186.235 146.596 186.033C146.763 186.188 146.913 186.359 147.045 186.544L148.202 187.997C149.161 189.226 150.479 190.938 151.914 192.839L152.138 193.135H151.994C154.155 192.346 156.101 191.647 157.518 191.162L159.186 190.597C159.38 190.5 159.585 190.425 159.796 190.373Z" fill="#407BFF"/>
</g>
<path d="M150.407 191.073C149.38 191.712 148.31 192.281 147.206 192.776C146.135 193.344 145.027 193.839 143.888 194.256C144.912 193.607 145.982 193.035 147.09 192.543C148.159 191.974 149.267 191.482 150.407 191.073Z" fill="#407BFF"/>
<g opacity="0.2">
<path d="M150.407 191.073C149.38 191.712 148.31 192.281 147.206 192.776C146.135 193.344 145.027 193.839 143.888 194.256C144.912 193.607 145.982 193.035 147.09 192.543C148.159 191.974 149.267 191.482 150.407 191.073Z" fill="#407BFF"/>
</g>
<path d="M157.339 198.668C156.76 197.66 156.257 196.611 155.832 195.529C155.334 194.478 154.909 193.393 154.559 192.283C155.647 194.337 156.576 196.472 157.339 198.668Z" fill="#407BFF"/>
<g opacity="0.2">
<path d="M157.339 198.668C156.76 197.66 156.257 196.611 155.832 195.529C155.334 194.478 154.909 193.393 154.559 192.283C155.647 194.337 156.576 196.472 157.339 198.668Z" fill="#407BFF"/>
</g>
<path d="M53.7091 87.4608C52.7972 91.0496 50.8417 94.2874 48.0898 96.7649C45.3379 99.2424 41.9132 100.848 38.2486 101.379C34.5841 101.911 30.8443 101.343 27.5022 99.749C24.1602 98.1549 21.3658 95.6055 19.4725 92.4233C17.5793 89.2411 16.6721 85.5689 16.8657 81.8712C17.0593 78.1734 18.3451 74.6161 20.5604 71.649C22.7756 68.682 25.821 66.4384 29.3113 65.202C32.8016 63.9656 36.5801 63.7919 40.1691 64.7029C44.9816 65.9269 49.1111 69.0116 51.65 73.2791C54.189 77.5465 54.9296 82.6475 53.7091 87.4608Z" fill="#263238"/>
<path d="M42.4735 72.7014C42.8052 72.8359 40.6801 79.1037 37.721 86.7076C37.2816 87.8105 36.8243 88.8686 36.4567 89.9088L36.2325 90.4737L35.6676 90.2585C29.5971 87.9181 25.1585 85.9902 25.2661 85.7123C25.3737 85.4343 29.9826 86.8869 36.098 89.1017L35.3089 89.4604C35.7035 88.4203 36.116 87.3532 36.5374 86.2503C39.4875 78.6374 42.1506 72.6027 42.4735 72.7014Z" fill="white"/>
</svg>
