<svg width="25" height="25" viewBox="0 0 25 25" fill="none" xmlns="http://www.w3.org/2000/svg">
<path fill-rule="evenodd" clip-rule="evenodd" d="M1.10938 12.0647C1.10938 5.98956 6.03424 1.0647 12.1094 1.0647C18.1845 1.0647 23.1094 5.98956 23.1094 12.0647C23.1094 18.1398 18.1845 23.0647 12.1094 23.0647C6.03424 23.0647 1.10938 18.1398 1.10938 12.0647ZM13.1094 6.0647C13.1094 5.51241 12.6617 5.0647 12.1094 5.0647C11.5571 5.0647 11.1094 5.51241 11.1094 6.0647V12.0647C11.1094 12.4435 11.3234 12.7897 11.6622 12.9591L15.6622 14.9591C16.1561 15.2061 16.7568 15.0059 17.0038 14.5119C17.2508 14.0179 17.0506 13.4173 16.5566 13.1703L13.1094 11.4467V6.0647Z" fill="#4A4A4A"/>
</svg>
